<?xml version="1.0" encoding="UTF-8"?>
<!-- Generator: visioncortex VTracer 0.6.12 -->
<svg version="1.1" xmlns="http://www.w3.org/2000/svg" width="1024" height="1024">
<path d="M0 0 C337.92 0 675.84 0 1024 0 C1024 337.92 1024 675.84 1024 1024 C686.08 1024 348.16 1024 0 1024 C0 686.08 0 348.16 0 0 Z " fill="#1E2A44" transform="translate(0,0)"/>
<circle cx="512" cy="512" r="365" fill="#182339"/>
<path d="M0 0 C0 0.66 0 1.32 0 2 C1.32 2.06 2.64 2.12 4 2.19 C9.57 3.09 12.34 4.92 17 8 C20.32 9.37 23.65 10.71 27 12 C27.99 12.66 28.98 13.32 30 14 C30 14.66 30 15.32 30 16 C30.99 16 31.98 16 33 16 C33.66 17.32 34.32 18.64 35 20 C35.66 20.33 36.32 20.66 37 21 C37 21.66 37 22.32 37 23 C38.65 23.66 40.3 24.32 42 25 C47.19 30.29 51.23 36.65 55 43 C55.99 44.65 56.98 46.3 58 48 C81.61 102.33 82.05 165.39 63 221 C62.34 221 61.68 221 61 221 C60.67 222.65 60.34 224.3 60 226 C54.84 237.31 47.96 248.35 39 257 C38.12 257.91 37.25 258.82 36.34 259.76 C16.31 280.38 -8.8 294.13 -36 303 C-37.56 303.53 -39.12 304.05 -40.73 304.6 C-50.76 307.9 -60.59 310.32 -71 312 C-71.78 312.14 -71.78 312.14 -75.71 312.84 C-82.92 314.11 -89.67 315.17 -97 315 C-97 314.67 -97 314.34 -97 314 C-96.52 313.9 -96.52 313.9 -94.06 313.41 C-83.45 311.04 -74.49 307.25 -65 302 C-64.53 301.75 -64.53 301.75 -62.16 300.46 C-55.5 296.69 -49.82 291.92 -44 287 C-43.13 286.35 -42.26 285.71 -41.36 285.04 C-39 283 -39 283 -36 278 C-35.05 276.78 -34.1 275.57 -33.12 274.31 C-29.76 269.68 -27.44 265.17 -25 260 C-24.34 260 -23.68 260 -23 260 C-22.71 258.47 -22.42 256.95 -22.12 255.38 C-21 250 -21 250 -19.95 247.05 C-14.89 230.8 -18.79 209.74 -25.75 194.75 C-28.94 188.75 -32.83 183.35 -37 178 C-37.68 177.11 -38.36 176.22 -39.05 175.31 C-41 173 -41 173 -44 171 C-44 170.34 -44 169.68 -44 169 C-45.32 168.34 -46.64 167.68 -48 167 C-50.39 165.41 -52.73 163.75 -55 162 C-55 161.34 -55 160.68 -55 160 C-56.65 159.34 -58.3 158.68 -60 158 C-61.71 157.05 -63.42 156.1 -65.19 155.12 C-70.36 152.3 -75.43 149.96 -81 148 C-82.22 147.55 -83.44 147.11 -84.69 146.64 C-105.92 139.87 -134 139.89 -155.06 147.56 C-159.12 149.02 -162.75 150.15 -167 151 C-167 151.66 -167 152.32 -167 153 C-167.95 153.37 -168.9 153.74 -169.88 154.12 C-176.37 157.08 -182.3 160.72 -188 165 C-188.66 165 -189.32 165 -190 165 C-190.33 165.99 -190.66 166.98 -191 168 C-191.99 168 -192.98 168 -194 168 C-194.66 169.32 -195.32 170.64 -196 172 C-197.51 173.82 -199.06 175.6 -200.62 177.38 C-216.11 195.75 -221.62 216.19 -220 240 C-219.08 244.85 -217.71 249.37 -216 254 C-215.68 254.89 -215.68 254.89 -214.06 259.38 C-211.06 266.1 -207.31 271.68 -202.69 277.38 C-199 282 -199 282 -199 284 C-197.68 284.66 -196.36 285.32 -195 286 C-193.31 287.64 -191.65 289.31 -190 291 C-184.51 295.83 -184.51 295.83 -181 297 C-181 297.66 -181 298.32 -181 299 C-180.13 299.25 -179.27 299.5 -178.38 299.75 C-175 301 -175 301 -172.25 302.88 C-168.05 305.62 -163.69 307.23 -159 309 C-157.7 309.54 -156.4 310.07 -155.06 310.62 C-151.65 311.78 -148.6 312.47 -145.06 313.06 C-143.39 313.37 -141.72 313.68 -140 314 C-139.67 314.66 -139.34 315.32 -139 316 C-179.92 318.08 -233.89 304.56 -265 277 C-267 272.06 -267 272.06 -268 268 C-268.99 267.67 -269.98 267.34 -271 267 C-274 262 -274 262 -274 260 C-274.66 260 -275.32 260 -276 260 C-278.48 256.4 -280.67 253.17 -281.88 248.94 C-283.87 243.72 -288.18 240.17 -292.81 237.19 C-296.27 233.73 -296.32 229.7 -297 225 C-297.99 224.67 -298.98 224.34 -300 224 C-300.66 223.01 -301.32 222.02 -302 221 C-302.99 220.67 -303.98 220.34 -305 220 C-306.81 214.56 -306.18 208.69 -306.19 203 C-306.2 201.72 -306.21 200.45 -306.22 199.13 C-306.24 191.48 -305.62 184.48 -304 177 C-303.34 177 -302.68 177 -302 177 C-301.75 175.12 -301.5 173.25 -301.25 171.31 C-299.51 160.11 -295.84 150.21 -291 140 C-290.67 139.01 -290.34 138.02 -290 137 C-289.34 137 -288.68 137 -288 137 C-287.73 136.13 -287.46 135.27 -287.19 134.38 C-284.14 125.71 -279.47 118.47 -273 112 C-271.73 110.29 -270.48 108.55 -269.25 106.81 C-265.82 102.01 -262.13 97.64 -258.13 93.31 C-256.33 91.36 -254.59 89.34 -252.88 87.31 C-246.85 80.61 -240.4 74.34 -234 68 C-233.01 67.01 -232.02 66.02 -231 65 C-229.56 64.05 -228.11 63.1 -226.62 62.12 C-222 59 -222 59 -219.56 56.56 C-216.53 53.53 -213.14 51.23 -209.61 48.82 C-207.17 47.12 -204.83 45.28 -202.5 43.44 C-197.81 39.85 -193.08 37 -188 34 C-186.76 33.07 -185.52 32.14 -184.25 31.19 C-180.97 28.98 -178.9 28.29 -175 28 C-174.67 27.01 -174.34 26.02 -174 25 C-171.67 24.31 -169.34 23.65 -167 23 C-165.39 22.2 -163.78 21.39 -162.12 20.56 C-157.43 18.22 -152.98 16.61 -148 15 C-144.82 13.7 -141.66 12.35 -138.5 10.99 C-136 10 -136 10 -134 10 C-134 9.34 -134 8.68 -134 8 C-132.41 7.75 -130.82 7.5 -129.19 7.25 C-125.06 6.52 -121.85 5.55 -117.88 4 C-110.54 1.14 -102.79 0.69 -95 0 C-95 -0.66 -95 -1.32 -95 -2 C-93.44 -2.2 -91.87 -2.41 -90.26 -2.62 C-88.21 -2.89 -86.17 -3.17 -84.12 -3.44 C-83.61 -3.5 -83.61 -3.5 -81 -3.85 C-53.86 -7.48 -26.99 -6.41 0 0 Z " fill="#FAE3C0" transform="translate(639,372)"/>
<path
     d="m 636,254 c 26.12372,30.53338 84.63989,-5.01405 106.91589,40.74768 C 781.77302,331.65682 760.38874,413.20857 705,422 c -30.7095,-39.59856 35.81369,-58.22512 5.86703,-99.94813 -19.15057,-32.02842 -70.06418,14.15284 -65.55703,7.06813 -21.30822,-10.66526 -80.07205,-90.47976 -69.99,-67.80875 20.46248,19.09435 65.16045,64.98941 9.24797,46.29516 C 477.98367,298.53912 367.16129,359.45036 329,461 c -13.07505,40.46293 -11.77389,100.85747 -2.06,131.75 22.40051,10.66137 52.09874,43.48702 43.06,69.25 -8.74827,23.14732 -40.95589,41.98198 -68.78641,26.82766 C 240.1614,663.50812 287.04369,598.59484 314.81,581.12 302.9162,543.06014 294.04058,502.68964 297,462 253.93164,455.33543 226.47048,401.19354 240,364.12 248.99048,313.51458 312.70298,287.52233 359,309 390.35232,280.77343 423.3429,239.24507 467.91353,223.68771 524.16313,198.49971 590.58053,214.48812 636,254 Z"
     fill="#3f7b73"
     id="path8" />
<path
     d="m 569,256 c 32.51949,13.40536 51.2233,65.30886 78.70246,70.19017 C 679.35508,273.13818 751.90322,343.00832 706,378 c -24.34485,4.01064 1.41427,41.41396 7.93875,43.74625 C 694.87372,439.06063 687.21133,399.34967 672,388 640.48822,368.89319 597.78122,362.50575 558,369 c -34.00123,4.70186 -67.12521,16.02729 -99.06,33.25 -38.47672,22.53653 -70.16523,49.48305 -95.94,86.75 -19.09247,24.55423 -30.9157,59.17252 -29.05,92.16 11.87467,31.952 -29.80631,2.3786 -12.6275,-22.41 -14.05401,-67.61831 12.68215,-138.62758 64.9275,-183 C 445.09141,320.47402 534.79721,290.79415 616,311 602.89166,290.67734 585.44937,272.83769 569,256 Z"
     fill="#3f7b73"
     id="path10" />
<path
     d="m 528,215 c 44.30713,2.19092 87.64358,23.95031 117,57 -23.30188,23.56424 -32.68165,36.47164 -53.64,2.5025 -60.37251,-49.97189 72.35136,60.23703 0.27,33.9675 C 482.96961,295.61062 367.99341,357.34257 329,461 312.26121,492.48288 326.46042,558.09297 318.81,570.88 289.66707,499.25358 297.92913,415.6957 340.42659,351.20546 361.44007,318.7033 382.14103,290.95618 412.34,265.65 444.41768,238.36121 484.65518,214.86424 528,215 Z"
     fill="#3f7b73"
     id="path12" />
<path d="M0 0 C0.91 0.32 0.91 0.32 5.5 1.94 C12.6 5.19 19.3 8.98 26 13 C26 13.66 26 14.32 26 15 C27.65 15.66 29.3 16.32 31 17 C46.68 29.09 57.41 45.86 62 65 C62.33 66.32 62.66 67.64 63 69 C63.7 84.3 64.23 98.67 58 113 C57.34 113 56.68 113 56 113 C55.84 113.93 55.67 114.86 55.5 115.81 C53.72 120.78 51.11 124.27 47.93 128.43 C46 131 46 131 44.19 134.12 C40.54 138.92 35.75 142.34 31 146 C30.15 146.68 29.31 147.37 28.43 148.07 C20.64 154.13 12.01 158.05 3 162 C1.79 162.54 0.58 163.08 -0.66 163.63 C-5.63 165.67 -10.77 166.84 -16 168 C-16.87 168.2 -16.87 168.2 -21.25 169.19 C-27.57 170.19 -33.92 170.21 -40.31 170.25 C-40.83 170.25 -40.83 170.25 -43.46 170.28 C-49.01 170.26 -53.75 169.78 -59 168 C-61.08 167.53 -63.16 167.07 -65.25 166.62 C-77.87 163.74 -88.76 158.32 -100 152 C-100 151.34 -100 150.68 -100 150 C-101.32 149.67 -102.64 149.34 -104 149 C-108.75 145.73 -112.57 142.62 -116 138 C-116.39 137.62 -116.39 137.62 -118.38 135.69 C-133.52 120.19 -140.35 100.47 -140.22 79.12 C-139.34 58.65 -131.07 42.74 -117.98 27.34 C-116.24 25.29 -114.61 23.15 -113 21 C-112.01 20.67 -111.02 20.34 -110 20 C-108.68 18.68 -107.36 17.36 -106 16 C-104.22 14.77 -102.4 13.58 -100.56 12.44 C-100.1 12.15 -100.1 12.15 -97.75 10.68 C-90.09 6 -90.09 6 -86 6 C-86 5.34 -86 4.68 -86 4 C-81.74 2.02 -77.4 0.4 -72.94 -1.06 C-71.96 -1.38 -70.98 -1.7 -69.96 -2.04 C-47.67 -7.46 -21.65 -7.95 0 0 Z " fill="#FDFCF6" transform="translate(558,519)"/>
<path d="M0 0 C1.84 0.01 3.67 0.01 5.56 0.02 C10 0.19 10 0.19 12 1.19 C13.71 1.27 15.42 1.35 17.19 1.44 C25.39 2.03 33.63 4.5 41 8.19 C38.67 12.85 35.79 16.77 32.75 21 C18.9 40.57 6.67 61.23 -3 83.19 C-3.85 84.88 -4.69 86.57 -5.56 88.31 C-8.19 94.01 -9.29 99.74 -10.32 105.9 C-11 109.19 -11 109.19 -13 113.19 C-13.71 116.18 -14.38 119.18 -15 122.19 C-15.66 122.19 -16.32 122.19 -17 122.19 C-17.07 122.68 -17.07 122.68 -17.41 125.18 C-18.01 129.25 -18.74 133.27 -19.5 137.31 C-20.81 144.62 -21.5 151.79 -22 159.19 C-22.33 159.52 -22.66 159.85 -23 160.19 C-38.83 159.1 -52.63 147.22 -63 136.19 C-65.39 133.23 -67.73 130.23 -70 127.19 C-70.83 126.11 -71.66 125.04 -72.51 123.93 C-75.14 119.98 -76.65 116.36 -78.19 111.88 C-78.68 110.48 -79.16 109.08 -79.67 107.64 C-82.39 98.54 -83.3 90.17 -83.19 80.75 C-83.19 79.68 -83.19 78.6 -83.19 77.49 C-83.14 69.61 -83.14 69.61 -82 66.19 C-81.34 66.19 -80.68 66.19 -80 66.19 C-80 64.91 -80 63.63 -80 62.31 C-79.12 52.91 -74.19 42.98 -69 35.19 C-68.34 35.19 -67.68 35.19 -67 35.19 C-66.34 33.54 -65.68 31.89 -65 30.19 C-63.68 28.87 -62.36 27.55 -61 26.19 C-60.23 25.39 -59.45 24.58 -58.66 23.76 C-55.75 20.95 -52.71 18.51 -49.5 16.06 C-48.95 15.64 -48.95 15.64 -46.16 13.49 C-40.93 9.68 -35.87 7.26 -29.81 5.12 C-28.4 4.62 -26.98 4.11 -25.52 3.59 C-16.91 0.92 -9.01 -0.07 0 0 Z " fill="#FAE6C7" transform="translate(320,301.8125)"/>
<path d="M0 0 C0.5 0.23 0.5 0.23 3.04 1.39 C12 5.8 19.21 11.7 26 19 C26.16 19.5 26.16 19.5 27 22 C27.66 22 28.32 22 29 22 C40.86 37.12 46.6 53.75 46.44 72.88 C46.43 74.11 46.42 75.35 46.41 76.62 C46.24 85.33 45.47 92.94 42 101 C41.43 102.39 40.86 103.78 40.27 105.22 C36.29 114.3 31.78 121.78 25 129 C23.72 130.4 22.44 131.81 21.12 133.25 C13.62 140.07 7.07 144.17 -3 146 C-4.65 146.99 -6.3 147.98 -8 149 C-8.99 149 -9.98 149 -11 149 C-11.31 147.52 -11.63 146.03 -11.95 144.5 C-12.38 142.52 -12.82 140.54 -13.25 138.56 C-13.45 137.59 -13.66 136.61 -13.87 135.61 C-15.26 129.33 -17.27 123.81 -20 118 C-20.73 115.35 -21.41 112.69 -22 110 C-13.37 106.12 -13.37 106.12 -10 105 C-10 104.34 -10 103.68 -10 103 C-9.28 102.3 -8.56 101.6 -7.81 100.88 C1.48 91.37 3.51 80.66 3.41 67.89 C2.42 58.46 -3.1 50.27 -10 44 C-21.01 36.6 -30.85 34.32 -44 36 C-53.94 38.79 -61.92 44.63 -68 53 C-68.33 53.99 -68.66 54.98 -69 56 C-68.5 56.17 -68.5 56.17 -66 57 C-66.33 57.16 -66.33 57.16 -68 58 C-68.89 57.38 -69.77 56.76 -70.69 56.12 C-74 54 -74 54 -79 52 C-79 51.34 -79 50.68 -79 50 C-80.65 49.34 -82.3 48.68 -84 48 C-86.75 44.92 -86.75 44.92 -89.56 41.19 C-90.49 39.96 -91.42 38.74 -92.38 37.48 C-93.24 36.33 -94.11 35.18 -95 34 C-95.77 33.13 -96.54 32.26 -97.34 31.36 C-99 29 -99 29 -99 24 C-97.17 21.54 -97.17 21.54 -94.75 19.06 C-92.07 16.25 -89.86 13.78 -87.75 10.5 C-86 8 -86 8 -81 6 C-80.67 5.01 -80.34 4.02 -80 3 C-78.35 2.34 -76.7 1.68 -75 1 C-74.01 0.34 -73.02 -0.32 -72 -1 C-70.89 -0.98 -69.77 -0.96 -68.62 -0.94 C-65 -1 -65 -1 -60 -4 C-41.89 -11.24 -17.37 -8.02 0 0 Z " fill="#F9E5C5" transform="translate(716,273)"/>
<path d="M0 0 C0 0.66 0 1.32 0 2 C1.32 2.06 2.64 2.12 4 2.19 C9.57 3.09 12.34 4.92 17 8 C20.32 9.37 23.65 10.71 27 12 C27.99 12.66 28.98 13.32 30 14 C30 14.66 30 15.32 30 16 C30.99 16 31.98 16 33 16 C33.66 17.32 34.32 18.64 35 20 C35.66 20.33 36.32 20.66 37 21 C37 21.66 37 22.32 37 23 C38.65 23.66 40.3 24.32 42 25 C44.17 27.21 44.17 27.21 46.19 29.81 C46.52 30.24 46.52 30.24 48.23 32.39 C50 35 50 35 52 40 C51.01 39.34 50.02 38.68 49 38 C49 37.34 49 36.68 49 36 C48.01 35.67 47.02 35.34 46 35 C45.63 34.62 45.63 34.62 43.75 32.69 C40.75 29.75 37.7 27.96 34 26 C34 25.34 34 24.68 34 24 C32.02 23.67 30.04 23.34 28 23 C28 22.34 28 21.68 28 21 C26.76 20.77 25.52 20.55 24.25 20.31 C19 19 19 19 13.68 16.62 C6.27 13.5 -1.22 12.03 -9.12 10.69 C-10.63 10.43 -12.14 10.17 -13.69 9.9 C-31.6 7.09 -51.03 5.88 -69 9 C-69.33 9.33 -69.66 9.66 -70 10 C-70.83 10.06 -70.83 10.06 -75 10.38 C-80.38 10.81 -84.88 12.27 -90 14 C-93.35 14.58 -96.71 15.05 -100.08 15.47 C-103 16 -103 16 -107 18 C-111.11 19.31 -115.14 20.22 -119.38 21.06 C-124 22 -124 22 -125 23 C-126.65 23 -128.3 23 -130 23 C-130 23.66 -130 24.32 -130 25 C-142.71 29.29 -142.71 29.29 -149 31 C-149 31.66 -149 32.32 -149 33 C-150.35 33.6 -151.7 34.21 -153.09 34.83 C-153.99 35.23 -153.99 35.23 -158.5 37.25 C-160.26 38.04 -162.03 38.83 -163.84 39.64 C-167.1 41.13 -170.34 42.68 -173.53 44.3 C-177 46 -177 46 -179 46 C-179.33 46.99 -179.66 47.98 -180 49 C-182.37 50.36 -182.37 50.36 -185.44 51.75 C-193.91 55.82 -201.1 61.18 -208.47 67 C-210.37 68.51 -212.29 69.99 -214.22 71.46 C-222.57 77.9 -230.39 84.71 -238 92 C-238.87 92.83 -239.74 93.66 -240.64 94.51 C-244.97 98.73 -248.57 103.04 -252 108 C-252.76 108.74 -253.53 109.49 -254.31 110.25 C-262.99 119.13 -269.56 130.47 -276 141 C-276.27 141.42 -276.27 141.42 -277.62 143.54 C-282.21 150.97 -285.39 158.64 -288.44 166.82 C-289.59 169.92 -290.86 172.97 -292.19 176 C-297.88 191.71 -298.5 206.52 -298 223 C-299.32 222.34 -300.64 221.68 -302 221 C-302.99 220.67 -303.98 220.34 -305 220 C-306.81 214.56 -306.18 208.69 -306.19 203 C-306.2 201.72 -306.21 200.45 -306.22 199.13 C-306.24 191.48 -305.62 184.48 -304 177 C-303.34 177 -302.68 177 -302 177 C-301.75 175.12 -301.5 173.25 -301.25 171.31 C-299.51 160.11 -295.84 150.21 -291 140 C-290.67 139.01 -290.34 138.02 -290 137 C-289.34 137 -288.68 137 -288 137 C-287.73 136.13 -287.46 135.27 -287.19 134.38 C-284.14 125.71 -279.47 118.47 -273 112 C-271.73 110.29 -270.48 108.55 -269.25 106.81 C-265.82 102.01 -262.13 97.64 -258.13 93.31 C-256.33 91.36 -254.59 89.34 -252.88 87.31 C-246.85 80.61 -240.4 74.34 -234 68 C-233.01 67.01 -232.02 66.02 -231 65 C-229.56 64.05 -228.11 63.1 -226.62 62.12 C-222 59 -222 59 -219.56 56.56 C-216.53 53.53 -213.14 51.23 -209.61 48.82 C-207.17 47.12 -204.83 45.28 -202.5 43.44 C-197.81 39.85 -193.08 37 -188 34 C-186.76 33.07 -185.52 32.14 -184.25 31.19 C-180.97 28.98 -178.9 28.29 -175 28 C-174.67 27.01 -174.34 26.02 -174 25 C-171.67 24.31 -169.34 23.65 -167 23 C-165.39 22.2 -163.78 21.39 -162.12 20.56 C-157.43 18.22 -152.98 16.61 -148 15 C-144.82 13.7 -141.66 12.35 -138.5 10.99 C-136 10 -136 10 -134 10 C-134 9.34 -134 8.68 -134 8 C-132.41 7.75 -130.82 7.5 -129.19 7.25 C-125.06 6.52 -121.85 5.55 -117.88 4 C-110.54 1.14 -102.79 0.69 -95 0 C-95 -0.66 -95 -1.32 -95 -2 C-93.44 -2.2 -91.87 -2.41 -90.26 -2.62 C-88.21 -2.89 -86.17 -3.17 -84.12 -3.44 C-83.61 -3.5 -83.61 -3.5 -81 -3.85 C-53.86 -7.48 -26.99 -6.41 0 0 Z " fill="#E4C496" transform="translate(639,372)"/>
<path
     d="M 636,254 C 677.50992,300.7531 595.83983,223.84403 573.58184,224.86113 518.32711,201.64138 457.60043,227.14094 416.34,263.37 391.24164,283.34659 367.88746,310.35953 351,336 c -49.68342,66.82397 -62.69702,157.83127 -30.94234,235.07266 9.26057,37.25259 -64.5538,36.90402 -42.20516,86.12484 3.77868,15.9048 29.36792,40.46593 1.21609,14.22375 C 249.03773,632.75035 297.13354,598.21704 314.81,581.12 299.08998,531.2456 286.8468,476.05496 303,424 315.79267,375.55126 343.80548,324.49404 381.61,287.39 431.67602,226.3308 522.30584,187.73039 596.65592,228.37604 610.71533,235.34097 623.84208,244.10319 636,254 Z"
     fill="#3f7b73"
     id="path22" />
<path d="M0 0 C3.61 2.76 5.57 4.49 7.44 8.62 C8.36 16.56 6.94 21.09 2.44 27.62 C-5.03 36.69 -15.03 43.95 -26.56 46.62 C-27.88 46.62 -29.2 46.62 -30.56 46.62 C-30.2 53.15 -29.79 59.67 -29.38 66.19 C-29.27 68.04 -29.17 69.89 -29.07 71.79 C-29.01 72.68 -29.01 72.68 -28.71 77.19 C-28.61 78.83 -28.51 80.47 -28.41 82.16 C-27.45 87.2 -25.88 89.77 -22.56 93.62 C-18.46 96.36 -14.37 96.75 -9.56 97.62 C-9.56 99.27 -9.56 100.92 -9.56 102.62 C-11.56 103.62 -11.56 103.62 -17.56 103.62 C-21.76 101.91 -25.26 99.74 -28.56 96.62 C-28.89 95.31 -29.22 93.99 -29.56 92.62 C-30.22 92.62 -30.88 92.62 -31.56 92.62 C-32.22 93.94 -32.88 95.26 -33.56 96.62 C-36.86 100.38 -39.88 102.84 -44.56 104.62 C-48.44 104.81 -48.44 104.81 -51.56 104.62 C-51.89 102.98 -52.22 101.33 -52.56 99.62 C-51.56 98.62 -51.56 98.62 -47.31 97.81 C-42.77 96.68 -40.75 95.91 -37.56 92.62 C-31.64 80.77 -35.91 60.77 -36.56 47.62 C-38.46 47.4 -40.36 47.17 -42.31 46.94 C-51.56 45.52 -60.08 42.33 -67.56 36.62 C-68.59 35.84 -69.62 35.06 -70.69 34.25 C-75.87 29.52 -77.83 26.3 -78.19 19.25 C-77.95 12.68 -76.34 9.32 -71.56 4.62 C-51.71 -9.51 -21.44 -11.16 0 0 Z " fill="#2E3946" transform="translate(550.5625,534.375)"/>
<path d="M0 0 C10.75 6.05 16.81 14.15 21.38 25.56 C22.55 41.02 19.3 52.48 9.38 64.56 C8.72 64.56 8.05 64.56 7.38 64.56 C7.38 65.22 7.38 65.88 7.38 66.56 C3.25 69.83 1.81 70.56 -3.62 70.56 C-4.61 68.79 -5.59 67.02 -6.56 65.25 C-6.84 64.76 -6.84 64.76 -8.21 62.26 C-9.62 59.56 -9.62 59.56 -10.62 56.56 C-11.28 56.56 -11.95 56.56 -12.62 56.56 C-14.33 54.16 -16.03 51.74 -17.68 49.3 C-20.39 45.48 -23.53 42.07 -26.62 38.56 C-29.62 33.56 -29.62 33.56 -29.62 31.56 C-30.95 30.9 -32.26 30.24 -33.62 29.56 C-34.33 28.99 -35.03 28.41 -35.75 27.81 C-39.81 24.64 -44.18 22.18 -48.62 19.56 C-49.62 18.9 -50.61 18.24 -51.62 17.56 C-49.85 10.47 -44.39 5.83 -38.62 1.69 C-25.97 -5.03 -13.17 -6.18 0 0 Z " fill="#CFAD81" transform="translate(698.625,311.4375)"/>
<path
     d="m 569,256 c 19.90809,13.72372 64.87435,53.975 57.4625,65.4875 -118.15012,-36.13282 -264.3726,35.32073 -296.55922,157.18156 -12.07765,29.74341 3.36293,82.31564 -0.94484,99.34141 C 296.6525,500.64435 336.8976,411.3163 400.3975,362.95625 458.40399,317.29803 541.21952,291.70434 616,311 602.89166,290.67734 585.44937,272.83769 569,256 Z"
     fill="#4f8c83"
     id="path28" />
<path d="M0 0 C0.74 -0.01 0.74 -0.01 4.47 -0.04 C8.5 0.19 8.5 0.19 13.5 2.19 C12.54 7 11.35 9.49 8.88 13.62 C-2.57 33.19 -11.53 54.31 -17.5 76.19 C-28.83 71.66 -34.11 63.98 -39.5 53.19 C-42.14 41.04 -41.08 29.28 -34.75 18.5 C-25.48 6.2 -15.63 0.07 0 0 Z " fill="#CEAE82" transform="translate(321.5,344.8125)"/>
<path d="M0 0 C0 0.66 0 1.32 0 2 C1.32 2.66 2.64 3.32 4 4 C9.56 8.75 11.73 13.23 12.44 20.5 C11.95 25.49 10.85 27.92 8 32 C7.65 32.52 7.65 32.52 5.88 35.12 C0.27 40.73 -5.7 43.3 -13.56 43.5 C-22.79 43.09 -29.5 40.76 -36 34 C-39.58 28.12 -39.53 22.78 -39 16 C-36.27 7.35 -31.46 2.66 -23.75 -1.94 C-15.3 -4.33 -7.89 -3.64 0 0 Z " fill="#FAB194" transform="translate(662,547)"/>
<path d="M0 0 C5.19 3.66 9.21 7.05 11.62 13 C12.38 21.05 12.74 26.16 8 33 C7.42 33.89 6.85 34.77 6.25 35.69 C1.12 40.96 -5.37 42.87 -12.5 43.44 C-21.8 43.34 -27.74 39.3 -34.12 32.81 C-38.65 26.81 -38.32 22.46 -38 15 C-36.19 8.32 -32.23 4.42 -27 0 C-17.39 -3.84 -9.5 -4.24 0 0 Z " fill="#FAB093" transform="translate(403,563)"/>
<path
     d="m 609.06641,363.80859 c 27.06534,3.29095 60.15386,14.31303 78.67768,37.1059 20.1347,38.8666 -18.52,-26.55786 -36.74768,-23.0359 -34.92721,-14.85633 -83.40614,-14.12249 -119.12,-3.57 -38.88649,8.65125 -76.84021,26.38006 -109.23,52.86 -24.46149,15.70857 -46.2767,43.50599 -63.65,66.83 -17.85162,28.10793 -32.90347,69.01578 -21,99 -27.49089,19.0753 -17.30834,-63.40123 -7,-13 -5.21139,-25.06323 2.00009,-24.48555 10.08279,-57.94672 13.15552,-29.90015 31.21203,-52.0846 53.91721,-77.05328 38.35567,-34.36419 88.53662,-66.40446 142.95782,-75.29721 23.37493,-5.5114 47.01949,-7.63705 71.11218,-5.89279 z"
     fill="#7eb2aa"
     id="path36" />
<path
     d="m 754,308 c 19.78708,21.6036 11.84284,68.4527 -9.27178,93.13916 -20.24627,21.77796 -55.13416,26.11039 -32.52869,62.59147 14.94499,70.45386 0.65351,157.65019 -67.44578,195.81687 C 611.14034,677.01183 574.25502,689.15743 536,689 596.20148,680.55366 666.26825,660.56345 695.325,602.93375 723.72319,549.67032 718.23999,479.38526 698,422 c 30.21585,6.96753 73.96162,-48.37919 63.06234,-87.01625 C 761.2811,325.28657 755.6874,317.20079 754,308 Z"
     fill="#66a199"
     id="path38" />
<path d="M0 0 C6.11 1.53 8.13 5.08 12 10 C11.67 11.32 11.34 12.64 11 14 C9.68 14.33 8.36 14.66 7 15 C5.68 13.68 4.36 12.36 3 11 C-1 13 -1 13 -4.38 16.19 C-15.23 25.13 -25.23 28.15 -39 28 C-39.33 28.83 -39.33 28.83 -41 33 C-42.31 35.35 -43.64 37.68 -45 40 C-46.32 39.67 -47.64 39.34 -49 39 C-50 35 -50 35 -47.56 30.75 C-47.14 30.13 -47.14 30.13 -45 27 C-48.3 26.34 -51.6 25.68 -55 25 C-55 23.02 -55 21.04 -55 19 C-53.43 19.16 -51.87 19.33 -50.25 19.5 C-33.6 20.95 -20.41 18.32 -7.06 7.94 C-4.43 5.42 -2.15 2.93 0 0 Z " fill="#1B1813" transform="translate(445,505)"/>
<path d="M0 0 C4 1 4 1 7.12 4.19 C14.41 11.36 22.26 15.71 32.49 16.23 C40.72 16.16 48.83 16.07 57 15 C57 16.65 57 18.3 57 20 C51.38 23 51.38 23 48 23 C48.42 23.7 48.42 23.7 50.56 27.25 C53 32 53 32 52 36 C47 35 47 35 44.19 31.06 C42 27 42 27 42 25 C40.98 25.06 39.97 25.12 38.92 25.18 C24.8 25.64 15.54 22.35 5 13 C4.34 11.68 3.68 10.36 3 9 C2.22 9.78 1.43 10.57 0.62 11.38 C-0.92 12.92 -2.46 14.46 -4 16 C-5.32 15.67 -6.64 15.34 -8 15 C-6.7 8.52 -3.89 5.3 0 0 Z " fill="#1D1915" transform="translate(580,493)"/>
<path d="M0 0 C0.99 0.33 1.98 0.66 3 1 C5.21 10.49 5.61 19.85 5.95 29.56 C6.33 36.79 6.77 41.54 12 47 C16.1 49.73 20.2 50.13 25 51 C25 52.65 25 54.3 25 56 C23 57 23 57 17 57 C12.8 55.28 9.31 53.12 6 50 C5.67 48.68 5.34 47.36 5 46 C4.34 46 3.68 46 3 46 C2.34 47.32 1.68 48.64 1 50 C-2.29 53.75 -5.32 56.22 -10 58 C-13.88 58.19 -13.88 58.19 -17 58 C-17.33 56.35 -17.66 54.7 -18 53 C-17 52 -17 52 -12.75 51.19 C-8.21 50.05 -6.19 49.29 -3 46 C-0.57 41.14 -0.68 37.85 -0.59 32.42 C-0.55 30.54 -0.51 28.66 -0.47 26.72 C-0.44 24.75 -0.41 22.78 -0.38 20.75 C-0.34 18.74 -0.3 16.74 -0.26 14.73 C-0.16 9.82 -0.08 4.91 0 0 Z " fill="#232627" transform="translate(516,581)"/>
<path d="M0 0 C5.22 1.3 6.13 3.62 9 8 C10.42 7.5 11.85 7.01 13.31 6.5 C18 5 18 5 21 5 C20 9 20 9 17 14 C18 18.99 18.89 20.29 22 24 C22 24.66 22 25.32 22 26 C20.14 25.84 18.29 25.67 16.38 25.5 C13.06 25.47 13.06 25.47 10 26 C6.38 30 6.38 30 4 34 C3.34 34 2.68 34 2 34 C2 30.04 2 26.08 2 22 C0.76 21.9 -0.48 21.79 -1.75 21.69 C-6 21 -6 21 -10 18 C-8.54 17.44 -7.07 16.89 -5.56 16.31 C-1 13 -1 13 -0.18 9.77 C0.04 6.49 0.12 3.29 0 0 Z " fill="#F4E4B8" transform="translate(286,214) rotate(0) scale(1)"/>
<path d="M0 0 C5.22 1.3 6.13 3.62 9 8 C10.42 7.5 11.85 7.01 13.31 6.5 C18 5 18 5 21 5 C20 9 20 9 17 14 C18 18.99 18.89 20.29 22 24 C22 24.66 22 25.32 22 26 C20.14 25.84 18.29 25.67 16.38 25.5 C13.06 25.47 13.06 25.47 10 26 C6.38 30 6.38 30 4 34 C3.34 34 2.68 34 2 34 C2 30.04 2 26.08 2 22 C0.76 21.9 -0.48 21.79 -1.75 21.69 C-6 21 -6 21 -10 18 C-8.54 17.44 -7.07 16.89 -5.56 16.31 C-1 13 -1 13 -0.18 9.77 C0.04 6.49 0.12 3.29 0 0 Z " fill="#F4E4B8" transform="translate(395,168) rotate(18) scale(0.55)"/>
<path d="M0 0 C5.22 1.3 6.13 3.62 9 8 C10.42 7.5 11.85 7.01 13.31 6.5 C18 5 18 5 21 5 C20 9 20 9 17 14 C18 18.99 18.89 20.29 22 24 C22 24.66 22 25.32 22 26 C20.14 25.84 18.29 25.67 16.38 25.5 C13.06 25.47 13.06 25.47 10 26 C6.38 30 6.38 30 4 34 C3.34 34 2.68 34 2 34 C2 30.04 2 26.08 2 22 C0.76 21.9 -0.48 21.79 -1.75 21.69 C-6 21 -6 21 -10 18 C-8.54 17.44 -7.07 16.89 -5.56 16.31 C-1 13 -1 13 -0.18 9.77 C0.04 6.49 0.12 3.29 0 0 Z " fill="#F4E4B8" transform="translate(720,232) rotate(-22) scale(0.75)"/>
<path d="M0 0 C5.22 1.3 6.13 3.62 9 8 C10.42 7.5 11.85 7.01 13.31 6.5 C18 5 18 5 21 5 C20 9 20 9 17 14 C18 18.99 18.89 20.29 22 24 C22 24.66 22 25.32 22 26 C20.14 25.84 18.29 25.67 16.38 25.5 C13.06 25.47 13.06 25.47 10 26 C6.38 30 6.38 30 4 34 C3.34 34 2.68 34 2 34 C2 30.04 2 26.08 2 22 C0.76 21.9 -0.48 21.79 -1.75 21.69 C-6 21 -6 21 -10 18 C-8.54 17.44 -7.07 16.89 -5.56 16.31 C-1 13 -1 13 -0.18 9.77 C0.04 6.49 0.12 3.29 0 0 Z " fill="#F4E4B8" transform="translate(845,470) rotate(30) scale(0.6)"/>
<path d="M0 0 C5.22 1.3 6.13 3.62 9 8 C10.42 7.5 11.85 7.01 13.31 6.5 C18 5 18 5 21 5 C20 9 20 9 17 14 C18 18.99 18.89 20.29 22 24 C22 24.66 22 25.32 22 26 C20.14 25.84 18.29 25.67 16.38 25.5 C13.06 25.47 13.06 25.47 10 26 C6.38 30 6.38 30 4 34 C3.34 34 2.68 34 2 34 C2 30.04 2 26.08 2 22 C0.76 21.9 -0.48 21.79 -1.75 21.69 C-6 21 -6 21 -10 18 C-8.54 17.44 -7.07 16.89 -5.56 16.31 C-1 13 -1 13 -0.18 9.77 C0.04 6.49 0.12 3.29 0 0 Z " fill="#F4E4B8" transform="translate(880,660) rotate(-12) scale(0.42)"/>
<path d="M0 0 C5.22 1.3 6.13 3.62 9 8 C10.42 7.5 11.85 7.01 13.31 6.5 C18 5 18 5 21 5 C20 9 20 9 17 14 C18 18.99 18.89 20.29 22 24 C22 24.66 22 25.32 22 26 C20.14 25.84 18.29 25.67 16.38 25.5 C13.06 25.47 13.06 25.47 10 26 C6.38 30 6.38 30 4 34 C3.34 34 2.68 34 2 34 C2 30.04 2 26.08 2 22 C0.76 21.9 -0.48 21.79 -1.75 21.69 C-6 21 -6 21 -10 18 C-8.54 17.44 -7.07 16.89 -5.56 16.31 C-1 13 -1 13 -0.18 9.77 C0.04 6.49 0.12 3.29 0 0 Z " fill="#F4E4B8" transform="translate(170,705) rotate(24) scale(0.5)"/>
<path d="M0 0 C4.38 0.93 7.98 1.99 12 4 C10.77 8.93 8.5 11.71 5.5 15.81 C-0.12 23.64 -5.19 31.66 -10 40 C-10.33 39.34 -10.66 38.68 -11 38 C-13.98 37.26 -16.98 36.59 -20 36 C-19.2 34.7 -18.39 33.4 -17.56 32.06 C-12.2 23.14 -7.41 13.87 -2.79 4.54 C-1 1 -1 1 0 0 Z " fill="#F3D8B2" transform="translate(346,309)"/>
<path d="M0 0 C0.66 0 1.32 0 2 0 C1.35 4.46 0.3 8.68 -1 13 C-1.66 13 -2.32 13 -3 13 C-3.33 14.65 -3.66 16.3 -4 18 C-9.16 29.31 -16.04 40.35 -25 49 C-25.88 49.91 -26.75 50.82 -27.66 51.76 C-47.69 72.38 -72.8 86.13 -100 95 C-101.56 95.53 -103.12 96.05 -104.73 96.6 C-114.76 99.9 -124.59 102.32 -135 104 C-136.56 104.28 -138.11 104.56 -139.71 104.84 C-146.92 106.11 -153.67 107.17 -161 107 C-161 106.67 -161 106.34 -161 106 C-158.48 105.35 -155.96 104.7 -153.44 104.06 C-152.74 103.88 -152.74 103.88 -149.18 102.97 C-143.81 101.72 -138.56 101.05 -133.06 100.56 C-127.61 99.96 -122.6 98.89 -117.41 97.11 C-111.07 95.04 -104.6 93.39 -98.16 91.63 C-93.44 90.14 -89.37 88.31 -85 86 C-83.54 85.44 -82.07 84.89 -80.56 84.31 C-73.93 81.75 -67.79 78.23 -61.56 74.83 C-58 73 -58 73 -56 73 C-56 72.34 -56 71.68 -56 71 C-53.92 69.6 -51.83 68.21 -49.72 66.86 C-45.75 64.15 -42.14 61.06 -38.48 57.95 C-36 56 -36 56 -32 54 C-31.34 52.68 -30.68 51.36 -30 50 C-28.05 47.37 -26.07 45.06 -23.69 42.81 C-12.42 31.02 -4.81 15.43 0 0 Z " fill="#E3D9C2" transform="translate(703,580)"/>
<path
     d="m 524.75,534.8125 c 53.84387,6.74045 -88.6417,22.99751 -21.14,1.5725 l 10.50906,-1.26719 z"
     fill="#2b564f"
     id="path62" />
</svg>
