<?xml version="1.0" encoding="UTF-8"?>
<!-- Generator: visioncortex VTracer 0.6.12 -->
<svg version="1.1" xmlns="http://www.w3.org/2000/svg" width="1024" height="1024">
<path d="M0 0 C337.92 0 675.84 0 1024 0 C1024 337.92 1024 675.84 1024 1024 C686.08 1024 348.16 1024 0 1024 C0 686.08 0 348.16 0 0 Z " fill="#1E2A44" transform="translate(0,0)"/>
<circle cx="512" cy="512" r="365" fill="#182339"/>
<path d="M0 0 C0 0.66 0 1.32 0 2 C1.32 2.06 2.64 2.12 4 2.19 C9.57 3.09 12.34 4.92 17 8 C20.32 9.37 23.65 10.71 27 12 C27.99 12.66 28.98 13.32 30 14 C30 14.66 30 15.32 30 16 C30.99 16 31.98 16 33 16 C33.66 17.32 34.32 18.64 35 20 C35.66 20.33 36.32 20.66 37 21 C37 21.66 37 22.32 37 23 C38.65 23.66 40.3 24.32 42 25 C47.19 30.29 51.23 36.65 55 43 C55.99 44.65 56.98 46.3 58 48 C81.61 102.33 82.05 165.39 63 221 C62.34 221 61.68 221 61 221 C60.67 222.65 60.34 224.3 60 226 C54.84 237.31 47.96 248.35 39 257 C38.12 257.91 37.25 258.82 36.34 259.76 C16.31 280.38 -8.8 294.13 -36 303 C-37.56 303.53 -39.12 304.05 -40.73 304.6 C-50.76 307.9 -60.59 310.32 -71 312 C-71.78 312.14 -71.78 312.14 -75.71 312.84 C-82.92 314.11 -89.67 315.17 -97 315 C-97 314.67 -97 314.34 -97 314 C-96.52 313.9 -96.52 313.9 -94.06 313.41 C-83.45 311.04 -74.49 307.25 -65 302 C-64.53 301.75 -64.53 301.75 -62.16 300.46 C-55.5 296.69 -49.82 291.92 -44 287 C-43.13 286.35 -42.26 285.71 -41.36 285.04 C-39 283 -39 283 -36 278 C-35.05 276.78 -34.1 275.57 -33.12 274.31 C-29.76 269.68 -27.44 265.17 -25 260 C-24.34 260 -23.68 260 -23 260 C-22.71 258.47 -22.42 256.95 -22.12 255.38 C-21 250 -21 250 -19.95 247.05 C-14.89 230.8 -18.79 209.74 -25.75 194.75 C-28.94 188.75 -32.83 183.35 -37 178 C-37.68 177.11 -38.36 176.22 -39.05 175.31 C-41 173 -41 173 -44 171 C-44 170.34 -44 169.68 -44 169 C-45.32 168.34 -46.64 167.68 -48 167 C-50.39 165.41 -52.73 163.75 -55 162 C-55 161.34 -55 160.68 -55 160 C-56.65 159.34 -58.3 158.68 -60 158 C-61.71 157.05 -63.42 156.1 -65.19 155.12 C-70.36 152.3 -75.43 149.96 -81 148 C-82.22 147.55 -83.44 147.11 -84.69 146.64 C-105.92 139.87 -134 139.89 -155.06 147.56 C-159.12 149.02 -162.75 150.15 -167 151 C-167 151.66 -167 152.32 -167 153 C-167.95 153.37 -168.9 153.74 -169.88 154.12 C-176.37 157.08 -182.3 160.72 -188 165 C-188.66 165 -189.32 165 -190 165 C-190.33 165.99 -190.66 166.98 -191 168 C-191.99 168 -192.98 168 -194 168 C-194.66 169.32 -195.32 170.64 -196 172 C-197.51 173.82 -199.06 175.6 -200.62 177.38 C-216.11 195.75 -221.62 216.19 -220 240 C-219.08 244.85 -217.71 249.37 -216 254 C-215.68 254.89 -215.68 254.89 -214.06 259.38 C-211.06 266.1 -207.31 271.68 -202.69 277.38 C-199 282 -199 282 -199 284 C-197.68 284.66 -196.36 285.32 -195 286 C-193.31 287.64 -191.65 289.31 -190 291 C-184.51 295.83 -184.51 295.83 -181 297 C-181 297.66 -181 298.32 -181 299 C-180.13 299.25 -179.27 299.5 -178.38 299.75 C-175 301 -175 301 -172.25 302.88 C-168.05 305.62 -163.69 307.23 -159 309 C-157.7 309.54 -156.4 310.07 -155.06 310.62 C-151.65 311.78 -148.6 312.47 -145.06 313.06 C-143.39 313.37 -141.72 313.68 -140 314 C-139.67 314.66 -139.34 315.32 -139 316 C-179.92 318.08 -233.89 304.56 -265 277 C-267 272.06 -267 272.06 -268 268 C-268.99 267.67 -269.98 267.34 -271 267 C-274 262 -274 262 -274 260 C-274.66 260 -275.32 260 -276 260 C-278.48 256.4 -280.67 253.17 -281.88 248.94 C-283.87 243.72 -288.18 240.17 -292.81 237.19 C-296.27 233.73 -296.32 229.7 -297 225 C-297.99 224.67 -298.98 224.34 -300 224 C-300.66 223.01 -301.32 222.02 -302 221 C-302.99 220.67 -303.98 220.34 -305 220 C-306.81 214.56 -306.18 208.69 -306.19 203 C-306.2 201.72 -306.21 200.45 -306.22 199.13 C-306.24 191.48 -305.62 184.48 -304 177 C-303.34 177 -302.68 177 -302 177 C-301.75 175.12 -301.5 173.25 -301.25 171.31 C-299.51 160.11 -295.84 150.21 -291 140 C-290.67 139.01 -290.34 138.02 -290 137 C-289.34 137 -288.68 137 -288 137 C-287.73 136.13 -287.46 135.27 -287.19 134.38 C-284.14 125.71 -279.47 118.47 -273 112 C-271.73 110.29 -270.48 108.55 -269.25 106.81 C-265.82 102.01 -262.13 97.64 -258.13 93.31 C-256.33 91.36 -254.59 89.34 -252.88 87.31 C-246.85 80.61 -240.4 74.34 -234 68 C-233.01 67.01 -232.02 66.02 -231 65 C-229.56 64.05 -228.11 63.1 -226.62 62.12 C-222 59 -222 59 -219.56 56.56 C-216.53 53.53 -213.14 51.23 -209.61 48.82 C-207.17 47.12 -204.83 45.28 -202.5 43.44 C-197.81 39.85 -193.08 37 -188 34 C-186.76 33.07 -185.52 32.14 -184.25 31.19 C-180.97 28.98 -178.9 28.29 -175 28 C-174.67 27.01 -174.34 26.02 -174 25 C-171.67 24.31 -169.34 23.65 -167 23 C-165.39 22.2 -163.78 21.39 -162.12 20.56 C-157.43 18.22 -152.98 16.61 -148 15 C-144.82 13.7 -141.66 12.35 -138.5 10.99 C-136 10 -136 10 -134 10 C-134 9.34 -134 8.68 -134 8 C-132.41 7.75 -130.82 7.5 -129.19 7.25 C-125.06 6.52 -121.85 5.55 -117.88 4 C-110.54 1.14 -102.79 0.69 -95 0 C-95 -0.66 -95 -1.32 -95 -2 C-93.44 -2.2 -91.87 -2.41 -90.26 -2.62 C-88.21 -2.89 -86.17 -3.17 -84.12 -3.44 C-83.61 -3.5 -83.61 -3.5 -81 -3.85 C-53.86 -7.48 -26.99 -6.41 0 0 Z " fill="#FAE3C0" transform="translate(639,372)"/>
<path d="M0 0 C4.2 4.02 8.33 8.07 12.38 12.24 C16 15 16 15 19.4 15.04 C20.59 14.7 21.78 14.35 23 14 C41.77 9.39 62.41 10.88 80 19 C81 19.46 82.01 19.92 83.04 20.39 C92 24.8 99.21 30.7 106 38 C106.33 38.99 106.66 39.98 107 41 C107.66 41 108.32 41 109 41 C120.86 56.12 126.6 72.75 126.44 91.88 C126.43 93.11 126.42 94.35 126.41 95.62 C126.24 104.33 125.47 111.94 122 120 C121.71 120.7 121.71 120.7 120.27 124.22 C116.29 133.3 111.78 140.78 105 148 C103.72 149.4 102.44 150.81 101.12 152.25 C93.62 159.07 87.07 163.17 77 165 C75.35 165.99 73.7 166.98 72 168 C71.01 168 70.02 168 69 168 C68.69 166.52 68.37 165.03 68.05 163.5 C67.62 161.52 67.18 159.54 66.75 157.56 C66.65 157.08 66.65 157.08 66.13 154.61 C64.74 148.33 62.73 142.81 60 137 C59.27 134.35 58.59 131.69 58 129 C66.62 125.12 66.62 125.12 70 124 C70 123.34 70 122.68 70 122 C70.72 121.3 71.44 120.6 72.19 119.88 C81.48 110.37 83.51 99.66 83.41 86.89 C82.42 77.46 76.9 69.27 70 63 C58.99 55.6 49.15 53.32 36 55 C26.06 57.79 18.08 63.63 12 72 C11.67 72.99 11.34 73.98 11 75 C11.99 75.33 12.98 75.66 14 76 C13.34 76.33 12.68 76.66 12 77 C11.11 76.38 10.23 75.76 9.31 75.12 C6 73 6 73 1 71 C1 70.34 1 69.68 1 69 C-0.65 68.34 -2.3 67.68 -4 67 C-6.51 64.2 -6.51 64.2 -9.12 60.69 C-15.97 51.7 -22.98 42.96 -31 35 C-32.26 33.56 -33.52 32.11 -34.81 30.62 C-43.89 20.48 -54.01 11.05 -65 3 C-62.13 5.88 -59.24 8.75 -56.33 11.6 C-48.76 19.07 -41.48 26.55 -35 35 C-34.16 36.07 -33.32 37.14 -32.45 38.25 C-19 55.48 -19 55.48 -19 58 C-24.07 57.48 -29.1 56.85 -34.12 56.06 C-36.42 55.71 -38.71 55.35 -41 55 C-42.11 54.82 -43.22 54.65 -44.37 54.47 C-53.83 53.08 -63.07 52.69 -72.62 52.75 C-74.12 52.76 -75.62 52.77 -77.16 52.78 C-108.9 53.11 -140.02 59.13 -169.23 71.8 C-171.07 72.6 -172.93 73.37 -174.8 74.11 C-182.47 77.15 -189.67 80.9 -196.92 84.82 C-199.68 86.29 -202.47 87.72 -205.27 89.11 C-209.15 91.08 -212.48 93.46 -216 96 C-216.66 96 -217.32 96 -218 96 C-218 96.66 -218 97.32 -218 98 C-220 99.36 -222.05 100.63 -224.12 101.88 C-234.08 108.12 -242.72 115.69 -251 124 C-252.78 125.61 -254.58 127.22 -256.38 128.81 C-278.05 148.5 -294.57 174.74 -305 202 C-305.66 203.65 -306.32 205.3 -307 207 C-309.79 214.81 -311.42 222.87 -313 231 C-313.3 232.55 -313.61 234.1 -313.92 235.7 C-317.74 258.32 -316.89 281.34 -313.66 303.97 C-312.34 314.03 -312.34 314.03 -314 319 C-314.23 322.39 -314.41 325.79 -314.56 329.19 C-314.6 330.1 -314.6 330.1 -314.82 334.73 C-314.88 336.14 -314.94 337.55 -315 339 C-313.04 338.92 -311.08 338.84 -309.06 338.75 C-302.8 338.79 -298.29 339.36 -293 343 C-292.87 343.75 -292.87 343.75 -292.19 347.56 C-290.63 354.69 -287.27 356.75 -281.86 361.32 C-278.16 364.78 -276.59 368.23 -275 373 C-274.34 374.65 -273.68 376.3 -273 378 C-272.34 378 -271.68 378 -271 378 C-268 383 -268 383 -268 385 C-266.68 385.33 -265.36 385.66 -264 386 C-263.34 388.64 -262.68 391.28 -262 394 C-262.66 394 -263.32 394 -264 394 C-264.14 395.01 -264.29 396.02 -264.44 397.06 C-264.96 400.71 -265.48 404.35 -266 408 C-266.66 408 -267.32 408 -268 408 C-268.1 408.89 -268.21 409.77 -268.31 410.69 C-269 414 -269 414 -272 419 C-272.66 419 -273.32 419 -274 419 C-274.33 420.32 -274.66 421.64 -275 423 C-281.08 429.77 -281.08 429.77 -286 431 C-286 431.66 -286 432.32 -286 433 C-286.93 433.35 -287.85 433.7 -288.81 434.06 C-290.01 434.51 -291.2 434.97 -292.44 435.44 C-293.63 435.89 -294.83 436.34 -296.06 436.81 C-299 438 -299 438 -300 439 C-316.85 442.45 -331.15 437.65 -345.69 429.31 C-356.03 421.37 -362.18 410.71 -365 398 C-366 383.13 -364.46 369.48 -354.92 357.36 C-346.65 347.96 -337.6 339.72 -325 337 C-323.68 337 -322.36 337 -321 337 C-321.03 333.71 -321.1 330.42 -321.19 327.12 C-321.22 325.29 -321.26 323.46 -321.29 321.57 C-322.08 315.37 -324.08 311.48 -327 306 C-338.06 273.65 -339.78 242 -339 208 C-340.08 207.87 -341.15 207.74 -342.26 207.6 C-360.58 204.66 -375.48 189.09 -386 175 C-386.41 174.46 -386.41 174.46 -388.51 171.74 C-391.14 167.79 -392.65 164.17 -394.19 159.69 C-394.68 158.29 -395.16 156.89 -395.67 155.45 C-398.39 146.35 -399.3 137.99 -399.19 128.56 C-399.19 127.49 -399.19 126.41 -399.19 125.31 C-399.14 117.42 -399.14 117.42 -398 114 C-397.34 114 -396.68 114 -396 114 C-396 112.72 -396 111.44 -396 110.12 C-395.12 100.72 -390.19 90.79 -385 83 C-384.34 83 -383.68 83 -383 83 C-382.34 81.35 -381.68 79.7 -381 78 C-379.68 76.68 -378.36 75.36 -377 74 C-376.23 73.2 -375.45 72.4 -374.66 71.57 C-371.75 68.76 -368.71 66.33 -365.5 63.88 C-364.95 63.45 -364.95 63.45 -362.16 61.3 C-356.93 57.49 -351.87 55.07 -345.81 52.94 C-344.4 52.43 -342.98 51.92 -341.52 51.4 C-332.91 48.73 -325.01 47.74 -316 47.81 C-314.16 47.82 -312.33 47.83 -310.44 47.83 C-306 48 -306 48 -304 49 C-302.29 49.08 -300.58 49.17 -298.81 49.25 C-291.09 49.81 -284.22 52.35 -277 55 C-276.5 55.16 -276.5 55.16 -274 56 C-273.67 55.56 -273.67 55.56 -271.98 53.32 C-266.52 46.22 -260.91 39.66 -254.47 33.43 C-252 31 -252 31 -248.75 27.19 C-239.8 17.19 -229.62 8.19 -219 0 C-217.61 -1.07 -216.23 -2.14 -214.8 -3.24 C-144.71 -56.11 -68.65 -56.11 0 0 Z " fill="#1E2A44" transform="translate(636,254)"/>
<path d="M0 0 C7.94 3.97 13.82 9.72 20 16 C22.66 18.34 25.33 20.67 28 23 C30.35 25.31 32.69 27.64 35 30 C35.4 30.38 35.4 30.38 37.44 32.31 C40.42 35.44 43.08 38.79 45.75 42.18 C48.16 45.21 50.64 48.17 53.12 51.12 C56.01 54.56 58.72 57.99 61.38 61.62 C64 65 64 65 68 67 C68 67.66 68 68.32 68 69 C69.09 69.29 70.19 69.58 71.31 69.88 C75 71 75 71 78 73 C78.33 71.68 78.66 70.36 79 69 C86.55 59.6 94.87 53.12 107.16 51.43 C119.84 51.09 129.9 53.83 139.63 62.29 C148.13 71.41 151.38 80.12 151.19 92.34 C150.63 103.27 145.86 111.65 139 120 C138.34 120 137.68 120 137 120 C137 120.66 137 121.32 137 122 C128.25 126.87 128.25 126.87 126 128 C126.41 129.07 126.83 130.14 127.25 131.25 C136 155 136 155 136 166 C137.2 165.34 138.39 164.68 139.62 164 C144 162 144 162 150 162 C146.5 165.5 143.67 166.49 139 168 C137.68 168 136.36 168 135 168 C134.67 169.65 134.34 171.3 134 173 C132 172 132 172 130.88 168.94 C130.59 167.97 130.3 167 130 166 C129.34 166 128.68 166 128 166 C127.57 165.07 127.13 164.14 126.69 163.19 C125 160 125 160 122 157 C121.24 155.6 120.47 154.19 119.69 152.75 C116.29 146.74 113.25 142.12 107 139 C107 138.34 107 137.68 107 137 C106.01 136.67 105.02 136.34 104 136 C103.67 134.68 103.34 133.36 103 132 C102.01 132 101.02 132 100 132 C100 131.34 100 130.68 100 130 C99.6 129.88 99.6 129.88 97.56 129.25 C92.06 127.32 86.77 125.26 82 121.88 C78.15 119.47 74.44 118.81 70 118 C70 117.34 70 116.68 70 116 C64.64 115.25 59.27 114.52 53.9 113.8 C50.56 113.35 47.21 112.88 43.88 112.36 C34.11 110.94 24.41 110.79 14.56 110.75 C13.19 110.74 11.81 110.73 10.39 110.72 C2.97 110.74 -3.73 111.35 -11 113 C-13.54 113.26 -16.08 113.48 -18.62 113.62 C-19.23 113.66 -19.23 113.66 -22.29 113.85 C-23.18 113.9 -24.08 113.95 -25 114 C-25 114.66 -25 115.32 -25 116 C-29.09 117.11 -32.89 117.99 -37.12 118.31 C-41.56 118.94 -44.91 119.98 -49.06 121.56 C-54.26 123.52 -58.37 124.56 -64 124 C-64 124.66 -64 125.32 -64 126 C-69.13 128.43 -74.19 130.42 -79.62 132 C-84.54 133.46 -88.66 135.2 -93 138 C-98 141 -98 141 -101.12 141.5 C-104 142 -104 142 -107 145 C-107.51 145.21 -107.51 145.21 -110.06 146.25 C-114.27 148.12 -117.79 150.54 -121.51 153.23 C-123.72 154.8 -126.01 156.25 -128.31 157.69 C-131.44 159.65 -134.14 161.68 -137 164 C-139.05 165.59 -141.12 167.18 -143.19 168.75 C-144.23 169.55 -145.28 170.35 -146.36 171.17 C-149 173 -149 173 -151 173 C-151.66 174.32 -152.32 175.64 -153 177 C-160.27 182 -160.27 182 -163 182 C-163.66 183.32 -164.32 184.64 -165 186 C-167.98 189.07 -170.99 192.08 -174.06 195.06 C-180.83 201.73 -187.26 208.41 -193 216 C-193.61 216.77 -193.61 216.77 -196.69 220.69 C-198.94 223.62 -201.14 226.58 -203.31 229.56 C-203.76 230.13 -203.76 230.13 -206 233 C-206.66 233 -207.32 233 -208 233 C-208.66 234.65 -209.32 236.3 -210 238 C-211.32 240.34 -212.66 242.67 -214 245 C-215.35 247.66 -216.69 250.32 -218 253 C-218.66 253 -219.32 253 -220 253 C-220.33 254.32 -220.66 255.64 -221 257 C-221.75 258.97 -222.53 260.92 -223.31 262.88 C-227.12 272.68 -229.87 282.71 -232 293 C-232.66 293 -233.32 293 -234 293 C-235.03 302.25 -235.12 311.38 -235.06 320.69 C-235.06 322.16 -235.05 323.64 -235.05 325.16 C-235.04 328.77 -235.02 332.39 -235 336 C-233.68 336.33 -232.36 336.66 -231 337 C-230.67 337.66 -230.34 338.32 -230 339 C-235.94 338.34 -241.88 337.68 -248 337 C-248.03 333.73 -248.05 330.46 -248.06 327.19 C-248.07 325.37 -248.09 323.54 -248.1 321.67 C-248 317 -248 317 -247 314 C-247.13 306.47 -247.99 299.01 -249.06 291.56 C-253.07 258.07 -250.76 215.6 -233 186 C-230.75 181.65 -228.5 177.3 -226.29 172.92 C-223.32 167.16 -220.01 162.09 -216 157 C-215.27 156 -214.55 155.01 -213.8 153.98 C-209.28 147.81 -204.5 142.07 -199.29 136.47 C-197.38 134.41 -195.55 132.28 -193.75 130.12 C-191.03 127.04 -188.19 124.58 -185 122 C-184.26 121.26 -183.51 120.51 -182.75 119.75 C-173.72 110.72 -163.97 102.58 -153 96 C-152.34 96 -151.68 96 -151 96 C-151 95.34 -151 94.68 -151 94 C-136.6 83.16 -119.48 76.05 -103 69 C-101.98 68.55 -100.96 68.1 -99.91 67.64 C-57.34 49.64 -1.96 41.86 43 55 C44.32 55 45.64 55 47 55 C33.85 35.87 19.67 18.68 2.32 3.16 C1.55 2.45 0.79 1.73 0 1 C0 0.67 0 0.34 0 0 Z " fill="#1E2A44" transform="translate(569,256)"/>
<path d="M0 0 C0.64 0.01 0.64 0.01 3.9 0.09 C13.7 0.49 22.57 2.38 32 5 C33.27 5.3 34.54 5.6 35.85 5.91 C45 8.1 52.72 11.59 61 16 C63.33 17.13 65.67 18.25 68 19.38 C86.21 28.5 104.12 41.07 117 57 C115.85 57.7 114.69 58.4 113.5 59.12 C106.7 63.47 101.28 67.1 97 74 C95.8 75.36 94.61 76.72 93.38 78.12 C90 82 90 82 88 86 C87.41 85.26 86.82 84.53 86.21 83.77 C85.42 82.79 84.63 81.82 83.81 80.81 C83.04 79.85 82.26 78.89 81.46 77.89 C79.09 75.11 76.62 72.56 74 70 C73.14 69.13 72.28 68.25 71.39 67.35 C66.1 62.01 60.73 56.88 55 52 C53.6 50.74 52.19 49.48 50.75 48.19 C47 45 47 45 43 43 C43.85 43.77 44.69 44.55 45.56 45.34 C62.13 60.56 76.92 76.93 89 96 C89 96.33 89 96.66 89 97 C83.93 96.48 78.9 95.85 73.88 95.06 C71.58 94.71 69.29 94.35 67 94 C65.89 93.82 64.78 93.65 63.63 93.47 C54.17 92.08 44.93 91.69 35.38 91.75 C33.88 91.76 32.38 91.77 30.84 91.78 C-0.9 92.11 -32.02 98.13 -61.23 110.8 C-63.07 111.6 -64.93 112.37 -66.8 113.11 C-74.47 116.15 -81.67 119.9 -88.92 123.82 C-91.68 125.29 -94.47 126.72 -97.27 128.11 C-101.15 130.08 -104.48 132.46 -108 135 C-108.66 135 -109.32 135 -110 135 C-110 135.66 -110 136.32 -110 137 C-112 138.36 -114.05 139.63 -116.12 140.88 C-126.08 147.12 -134.72 154.69 -143 163 C-144.78 164.61 -146.58 166.22 -148.38 167.81 C-170.05 187.5 -186.57 213.74 -197 241 C-197.66 242.65 -198.32 244.3 -199 246 C-201.79 253.81 -203.42 261.87 -205 270 C-205.3 271.55 -205.61 273.1 -205.92 274.7 C-209.74 297.32 -208.89 320.34 -205.66 342.97 C-204.78 349.66 -204.54 354.69 -207 361 C-207.33 361 -207.66 361 -208 361 C-208.39 359.31 -208.78 357.62 -209.19 355.88 C-210.31 351.35 -211.67 347.05 -213.31 342.69 C-222.65 317.18 -226.18 291.16 -226.25 264.12 C-226.27 262.29 -226.29 260.45 -226.31 258.55 C-226.36 241.76 -224.53 225.56 -219.75 209.44 C-219.45 208.39 -219.14 207.34 -218.83 206.26 C-209.78 175.58 -195.65 147.68 -178.05 121.11 C-176 118 -176 118 -175 116 C-174.34 116 -173.68 116 -173 116 C-172.34 114.68 -171.68 113.36 -171 112 C-169.87 110.15 -168.73 108.32 -167.56 106.5 C-166.97 105.56 -166.37 104.62 -165.75 103.66 C-164.25 101.38 -162.64 99.18 -161 97 C-160.34 97 -159.68 97 -159 97 C-158.67 96.34 -158.67 96.34 -157 93 C-154.75 89.94 -152.42 86.93 -150 84 C-149.34 84 -148.68 84 -148 84 C-147.67 83.34 -147.67 83.34 -146 80 C-145.01 78.68 -144.02 77.36 -143 76 C-142.34 76 -141.68 76 -141 76 C-140.67 75.34 -140.67 75.34 -139 72 C-132.58 64.9 -125.63 58.75 -118 53 C-117.61 52.61 -117.61 52.61 -115.66 50.65 C-107.76 42.79 -98.6 36.57 -89 31 C-88.01 30.01 -87.02 29.02 -86 28 C-83.03 26.29 -80.02 24.63 -77 23 C-75.64 22.22 -74.28 21.43 -72.88 20.62 C-62.55 15.06 -52.18 10.52 -41 7 C-39.66 6.48 -38.32 5.97 -36.94 5.44 C-24.49 0.89 -13.09 -0.29 0 0 Z " fill="#1E2A44" transform="translate(528,215)"/>
<path d="M0 0 C0.91 0.32 0.91 0.32 5.5 1.94 C12.6 5.19 19.3 8.98 26 13 C26 13.66 26 14.32 26 15 C27.65 15.66 29.3 16.32 31 17 C46.68 29.09 57.41 45.86 62 65 C62.33 66.32 62.66 67.64 63 69 C63.7 84.3 64.23 98.67 58 113 C57.34 113 56.68 113 56 113 C55.84 113.93 55.67 114.86 55.5 115.81 C53.72 120.78 51.11 124.27 47.93 128.43 C46 131 46 131 44.19 134.12 C40.54 138.92 35.75 142.34 31 146 C30.15 146.68 29.31 147.37 28.43 148.07 C20.64 154.13 12.01 158.05 3 162 C1.79 162.54 0.58 163.08 -0.66 163.63 C-5.63 165.67 -10.77 166.84 -16 168 C-16.87 168.2 -16.87 168.2 -21.25 169.19 C-27.57 170.19 -33.92 170.21 -40.31 170.25 C-40.83 170.25 -40.83 170.25 -43.46 170.28 C-49.01 170.26 -53.75 169.78 -59 168 C-61.08 167.53 -63.16 167.07 -65.25 166.62 C-77.87 163.74 -88.76 158.32 -100 152 C-100 151.34 -100 150.68 -100 150 C-101.32 149.67 -102.64 149.34 -104 149 C-108.75 145.73 -112.57 142.62 -116 138 C-116.39 137.62 -116.39 137.62 -118.38 135.69 C-133.52 120.19 -140.35 100.47 -140.22 79.12 C-139.34 58.65 -131.07 42.74 -117.98 27.34 C-116.24 25.29 -114.61 23.15 -113 21 C-112.01 20.67 -111.02 20.34 -110 20 C-108.68 18.68 -107.36 17.36 -106 16 C-104.22 14.77 -102.4 13.58 -100.56 12.44 C-100.1 12.15 -100.1 12.15 -97.75 10.68 C-90.09 6 -90.09 6 -86 6 C-86 5.34 -86 4.68 -86 4 C-81.74 2.02 -77.4 0.4 -72.94 -1.06 C-71.96 -1.38 -70.98 -1.7 -69.96 -2.04 C-47.67 -7.46 -21.65 -7.95 0 0 Z " fill="#FDFCF6" transform="translate(558,519)"/>
<path d="M0 0 C1.84 0.01 3.67 0.01 5.56 0.02 C10 0.19 10 0.19 12 1.19 C13.71 1.27 15.42 1.35 17.19 1.44 C25.39 2.03 33.63 4.5 41 8.19 C38.67 12.85 35.79 16.77 32.75 21 C18.9 40.57 6.67 61.23 -3 83.19 C-3.85 84.88 -4.69 86.57 -5.56 88.31 C-8.19 94.01 -9.29 99.74 -10.32 105.9 C-11 109.19 -11 109.19 -13 113.19 C-13.71 116.18 -14.38 119.18 -15 122.19 C-15.66 122.19 -16.32 122.19 -17 122.19 C-17.07 122.68 -17.07 122.68 -17.41 125.18 C-18.01 129.25 -18.74 133.27 -19.5 137.31 C-20.81 144.62 -21.5 151.79 -22 159.19 C-22.33 159.52 -22.66 159.85 -23 160.19 C-38.83 159.1 -52.63 147.22 -63 136.19 C-65.39 133.23 -67.73 130.23 -70 127.19 C-70.83 126.11 -71.66 125.04 -72.51 123.93 C-75.14 119.98 -76.65 116.36 -78.19 111.88 C-78.68 110.48 -79.16 109.08 -79.67 107.64 C-82.39 98.54 -83.3 90.17 -83.19 80.75 C-83.19 79.68 -83.19 78.6 -83.19 77.49 C-83.14 69.61 -83.14 69.61 -82 66.19 C-81.34 66.19 -80.68 66.19 -80 66.19 C-80 64.91 -80 63.63 -80 62.31 C-79.12 52.91 -74.19 42.98 -69 35.19 C-68.34 35.19 -67.68 35.19 -67 35.19 C-66.34 33.54 -65.68 31.89 -65 30.19 C-63.68 28.87 -62.36 27.55 -61 26.19 C-60.23 25.39 -59.45 24.58 -58.66 23.76 C-55.75 20.95 -52.71 18.51 -49.5 16.06 C-48.95 15.64 -48.95 15.64 -46.16 13.49 C-40.93 9.68 -35.87 7.26 -29.81 5.12 C-28.4 4.62 -26.98 4.11 -25.52 3.59 C-16.91 0.92 -9.01 -0.07 0 0 Z " fill="#FAE6C7" transform="translate(320,301.8125)"/>
<path d="M0 0 C0.5 0.23 0.5 0.23 3.04 1.39 C12 5.8 19.21 11.7 26 19 C26.16 19.5 26.16 19.5 27 22 C27.66 22 28.32 22 29 22 C40.86 37.12 46.6 53.75 46.44 72.88 C46.43 74.11 46.42 75.35 46.41 76.62 C46.24 85.33 45.47 92.94 42 101 C41.43 102.39 40.86 103.78 40.27 105.22 C36.29 114.3 31.78 121.78 25 129 C23.72 130.4 22.44 131.81 21.12 133.25 C13.62 140.07 7.07 144.17 -3 146 C-4.65 146.99 -6.3 147.98 -8 149 C-8.99 149 -9.98 149 -11 149 C-11.31 147.52 -11.63 146.03 -11.95 144.5 C-12.38 142.52 -12.82 140.54 -13.25 138.56 C-13.45 137.59 -13.66 136.61 -13.87 135.61 C-15.26 129.33 -17.27 123.81 -20 118 C-20.73 115.35 -21.41 112.69 -22 110 C-13.37 106.12 -13.37 106.12 -10 105 C-10 104.34 -10 103.68 -10 103 C-9.28 102.3 -8.56 101.6 -7.81 100.88 C1.48 91.37 3.51 80.66 3.41 67.89 C2.42 58.46 -3.1 50.27 -10 44 C-21.01 36.6 -30.85 34.32 -44 36 C-53.94 38.79 -61.92 44.63 -68 53 C-68.33 53.99 -68.66 54.98 -69 56 C-68.5 56.17 -68.5 56.17 -66 57 C-66.33 57.16 -66.33 57.16 -68 58 C-68.89 57.38 -69.77 56.76 -70.69 56.12 C-74 54 -74 54 -79 52 C-79 51.34 -79 50.68 -79 50 C-80.65 49.34 -82.3 48.68 -84 48 C-86.75 44.92 -86.75 44.92 -89.56 41.19 C-90.49 39.96 -91.42 38.74 -92.38 37.48 C-93.24 36.33 -94.11 35.18 -95 34 C-95.77 33.13 -96.54 32.26 -97.34 31.36 C-99 29 -99 29 -99 24 C-97.17 21.54 -97.17 21.54 -94.75 19.06 C-92.07 16.25 -89.86 13.78 -87.75 10.5 C-86 8 -86 8 -81 6 C-80.67 5.01 -80.34 4.02 -80 3 C-78.35 2.34 -76.7 1.68 -75 1 C-74.01 0.34 -73.02 -0.32 -72 -1 C-70.89 -0.98 -69.77 -0.96 -68.62 -0.94 C-65 -1 -65 -1 -60 -4 C-41.89 -11.24 -17.37 -8.02 0 0 Z " fill="#F9E5C5" transform="translate(716,273)"/>
<path d="M0 0 C0 0.66 0 1.32 0 2 C1.32 2.06 2.64 2.12 4 2.19 C9.57 3.09 12.34 4.92 17 8 C20.32 9.37 23.65 10.71 27 12 C27.99 12.66 28.98 13.32 30 14 C30 14.66 30 15.32 30 16 C30.99 16 31.98 16 33 16 C33.66 17.32 34.32 18.64 35 20 C35.66 20.33 36.32 20.66 37 21 C37 21.66 37 22.32 37 23 C38.65 23.66 40.3 24.32 42 25 C44.17 27.21 44.17 27.21 46.19 29.81 C46.52 30.24 46.52 30.24 48.23 32.39 C50 35 50 35 52 40 C51.01 39.34 50.02 38.68 49 38 C49 37.34 49 36.68 49 36 C48.01 35.67 47.02 35.34 46 35 C45.63 34.62 45.63 34.62 43.75 32.69 C40.75 29.75 37.7 27.96 34 26 C34 25.34 34 24.68 34 24 C32.02 23.67 30.04 23.34 28 23 C28 22.34 28 21.68 28 21 C26.76 20.77 25.52 20.55 24.25 20.31 C19 19 19 19 13.68 16.62 C6.27 13.5 -1.22 12.03 -9.12 10.69 C-10.63 10.43 -12.14 10.17 -13.69 9.9 C-31.6 7.09 -51.03 5.88 -69 9 C-69.33 9.33 -69.66 9.66 -70 10 C-70.83 10.06 -70.83 10.06 -75 10.38 C-80.38 10.81 -84.88 12.27 -90 14 C-93.35 14.58 -96.71 15.05 -100.08 15.47 C-103 16 -103 16 -107 18 C-111.11 19.31 -115.14 20.22 -119.38 21.06 C-124 22 -124 22 -125 23 C-126.65 23 -128.3 23 -130 23 C-130 23.66 -130 24.32 -130 25 C-142.71 29.29 -142.71 29.29 -149 31 C-149 31.66 -149 32.32 -149 33 C-150.35 33.6 -151.7 34.21 -153.09 34.83 C-153.99 35.23 -153.99 35.23 -158.5 37.25 C-160.26 38.04 -162.03 38.83 -163.84 39.64 C-167.1 41.13 -170.34 42.68 -173.53 44.3 C-177 46 -177 46 -179 46 C-179.33 46.99 -179.66 47.98 -180 49 C-182.37 50.36 -182.37 50.36 -185.44 51.75 C-193.91 55.82 -201.1 61.18 -208.47 67 C-210.37 68.51 -212.29 69.99 -214.22 71.46 C-222.57 77.9 -230.39 84.71 -238 92 C-238.87 92.83 -239.74 93.66 -240.64 94.51 C-244.97 98.73 -248.57 103.04 -252 108 C-252.76 108.74 -253.53 109.49 -254.31 110.25 C-262.99 119.13 -269.56 130.47 -276 141 C-276.27 141.42 -276.27 141.42 -277.62 143.54 C-282.21 150.97 -285.39 158.64 -288.44 166.82 C-289.59 169.92 -290.86 172.97 -292.19 176 C-297.88 191.71 -298.5 206.52 -298 223 C-299.32 222.34 -300.64 221.68 -302 221 C-302.99 220.67 -303.98 220.34 -305 220 C-306.81 214.56 -306.18 208.69 -306.19 203 C-306.2 201.72 -306.21 200.45 -306.22 199.13 C-306.24 191.48 -305.62 184.48 -304 177 C-303.34 177 -302.68 177 -302 177 C-301.75 175.12 -301.5 173.25 -301.25 171.31 C-299.51 160.11 -295.84 150.21 -291 140 C-290.67 139.01 -290.34 138.02 -290 137 C-289.34 137 -288.68 137 -288 137 C-287.73 136.13 -287.46 135.27 -287.19 134.38 C-284.14 125.71 -279.47 118.47 -273 112 C-271.73 110.29 -270.48 108.55 -269.25 106.81 C-265.82 102.01 -262.13 97.64 -258.13 93.31 C-256.33 91.36 -254.59 89.34 -252.88 87.31 C-246.85 80.61 -240.4 74.34 -234 68 C-233.01 67.01 -232.02 66.02 -231 65 C-229.56 64.05 -228.11 63.1 -226.62 62.12 C-222 59 -222 59 -219.56 56.56 C-216.53 53.53 -213.14 51.23 -209.61 48.82 C-207.17 47.12 -204.83 45.28 -202.5 43.44 C-197.81 39.85 -193.08 37 -188 34 C-186.76 33.07 -185.52 32.14 -184.25 31.19 C-180.97 28.98 -178.9 28.29 -175 28 C-174.67 27.01 -174.34 26.02 -174 25 C-171.67 24.31 -169.34 23.65 -167 23 C-165.39 22.2 -163.78 21.39 -162.12 20.56 C-157.43 18.22 -152.98 16.61 -148 15 C-144.82 13.7 -141.66 12.35 -138.5 10.99 C-136 10 -136 10 -134 10 C-134 9.34 -134 8.68 -134 8 C-132.41 7.75 -130.82 7.5 -129.19 7.25 C-125.06 6.52 -121.85 5.55 -117.88 4 C-110.54 1.14 -102.79 0.69 -95 0 C-95 -0.66 -95 -1.32 -95 -2 C-93.44 -2.2 -91.87 -2.41 -90.26 -2.62 C-88.21 -2.89 -86.17 -3.17 -84.12 -3.44 C-83.61 -3.5 -83.61 -3.5 -81 -3.85 C-53.86 -7.48 -26.99 -6.41 0 0 Z " fill="#E4C496" transform="translate(639,372)"/>
<path d="M0 0 C5.82 5.17 11.43 10.57 17 16 C16.34 16.99 15.68 17.98 15 19 C9.16 18.69 7.09 16.5 3.25 12.25 C-25.06 -17.16 -67.39 -36.37 -108 -38 C-109.18 -38.05 -110.36 -38.11 -111.58 -38.16 C-127.84 -38.57 -143.08 -34.18 -158 -28 C-158.97 -27.61 -159.94 -27.21 -160.95 -26.81 C-172.46 -22.11 -183.34 -16.4 -194 -10 C-194.66 -10 -195.32 -10 -196 -10 C-196.33 -9.01 -196.66 -8.02 -197 -7 C-199.25 -5.69 -201.49 -4.38 -203.75 -3.09 C-209.43 0.57 -214.49 5.03 -219.66 9.37 C-223 12 -223 12 -225 12 C-225.33 12.99 -225.66 13.98 -226 15 C-227.57 16.39 -229.21 17.72 -230.88 19 C-240.49 26.7 -248.42 35.33 -256 45 C-257.67 46.67 -259.33 48.33 -261 50 C-262.05 51.42 -263.1 52.85 -264.19 54.31 C-265.12 55.53 -266.04 56.75 -267 58 C-267.66 58 -268.32 58 -269 58 C-269.33 58.66 -269.33 58.66 -271 62 C-272.13 63.85 -273.27 65.68 -274.44 67.5 C-275.03 68.44 -275.63 69.38 -276.25 70.34 C-277.75 72.62 -279.36 74.82 -281 77 C-281.66 77 -282.32 77 -283 77 C-283.66 78.65 -284.32 80.3 -285 82 C-286.46 84.44 -287.97 86.85 -289.5 89.25 C-291.33 92.17 -293.17 95.08 -295 98 C-295.81 99.29 -296.62 100.58 -297.46 101.91 C-320.11 139.07 -333.7 181.26 -333.31 224.88 C-333.32 226.72 -333.32 228.56 -333.32 230.46 C-333.28 240.49 -332.77 250.12 -331 260 C-330.75 261.55 -330.51 263.1 -330.25 264.7 C-328.4 275.38 -325.76 285.59 -322.56 295.94 C-322.14 297.32 -321.71 298.7 -321.27 300.12 C-320 304 -320 304 -317.69 309.44 C-314.27 319.26 -315.71 330.75 -316 341 C-317.56 341.31 -319.12 341.62 -320.73 341.93 C-333.17 344.45 -343.23 349.41 -350.94 359.81 C-351.99 361.52 -353.02 363.25 -354 365 C-354.97 366.67 -355.94 368.34 -356.94 370.06 C-359.42 376.39 -359.53 382.84 -359.62 389.56 C-359.65 390.62 -359.67 391.67 -359.7 392.75 C-359.62 400.67 -357.54 405.94 -354 413 C-354 413.99 -354 414.98 -354 416 C-353.34 416 -352.68 416 -352 416 C-350.63 417.55 -349.33 419.17 -348.06 420.81 C-345.8 423.74 -343.63 426.37 -341 429 C-341 429.66 -341 430.32 -341 431 C-350.64 427.14 -356.1 420.21 -360.45 410.89 C-366.04 397.74 -367.46 383.56 -362 370 C-356.06 356.03 -345.52 345.76 -332 339 C-327.99 337.62 -325.24 337 -321 337 C-321.03 333.71 -321.1 330.42 -321.19 327.12 C-321.22 325.29 -321.26 323.46 -321.29 321.57 C-322.08 315.37 -324.08 311.48 -327 306 C-341.49 263.62 -345.6 213.26 -333 170 C-332.34 170 -331.68 170 -331 170 C-330.73 168.21 -330.46 166.41 -330.19 164.56 C-329.29 159.14 -327.81 154.19 -326 149 C-325.71 147.54 -325.42 146.07 -325.12 144.56 C-323.8 139.21 -321.54 134.89 -319 130 C-318.44 128.54 -317.89 127.07 -317.31 125.56 C-307.1 99.56 -289.69 73.83 -271.45 52.86 C-269.36 50.42 -267.38 47.87 -265.44 45.31 C-262 41 -258.33 37.23 -254.39 33.39 C-252 31 -252 31 -248.81 27.25 C-239.83 17.24 -229.65 8.21 -219 0 C-217.61 -1.07 -216.23 -2.14 -214.8 -3.24 C-144.6 -56.19 -68.77 -55.98 0 0 Z " fill="#1E2A44" transform="translate(636,254)"/>
<path d="M0 0 C3.61 2.76 5.57 4.49 7.44 8.62 C8.36 16.56 6.94 21.09 2.44 27.62 C-5.03 36.69 -15.03 43.95 -26.56 46.62 C-27.88 46.62 -29.2 46.62 -30.56 46.62 C-30.2 53.15 -29.79 59.67 -29.38 66.19 C-29.27 68.04 -29.17 69.89 -29.07 71.79 C-29.01 72.68 -29.01 72.68 -28.71 77.19 C-28.61 78.83 -28.51 80.47 -28.41 82.16 C-27.45 87.2 -25.88 89.77 -22.56 93.62 C-18.46 96.36 -14.37 96.75 -9.56 97.62 C-9.56 99.27 -9.56 100.92 -9.56 102.62 C-11.56 103.62 -11.56 103.62 -17.56 103.62 C-21.76 101.91 -25.26 99.74 -28.56 96.62 C-28.89 95.31 -29.22 93.99 -29.56 92.62 C-30.22 92.62 -30.88 92.62 -31.56 92.62 C-32.22 93.94 -32.88 95.26 -33.56 96.62 C-36.86 100.38 -39.88 102.84 -44.56 104.62 C-48.44 104.81 -48.44 104.81 -51.56 104.62 C-51.89 102.98 -52.22 101.33 -52.56 99.62 C-51.56 98.62 -51.56 98.62 -47.31 97.81 C-42.77 96.68 -40.75 95.91 -37.56 92.62 C-31.64 80.77 -35.91 60.77 -36.56 47.62 C-38.46 47.4 -40.36 47.17 -42.31 46.94 C-51.56 45.52 -60.08 42.33 -67.56 36.62 C-68.59 35.84 -69.62 35.06 -70.69 34.25 C-75.87 29.52 -77.83 26.3 -78.19 19.25 C-77.95 12.68 -76.34 9.32 -71.56 4.62 C-51.71 -9.51 -21.44 -11.16 0 0 Z " fill="#2E3946" transform="translate(550.5625,534.375)"/>
<path d="M0 0 C10.75 6.05 16.81 14.15 21.38 25.56 C22.55 41.02 19.3 52.48 9.38 64.56 C8.72 64.56 8.05 64.56 7.38 64.56 C7.38 65.22 7.38 65.88 7.38 66.56 C3.25 69.83 1.81 70.56 -3.62 70.56 C-4.61 68.79 -5.59 67.02 -6.56 65.25 C-6.84 64.76 -6.84 64.76 -8.21 62.26 C-9.62 59.56 -9.62 59.56 -10.62 56.56 C-11.28 56.56 -11.95 56.56 -12.62 56.56 C-14.33 54.16 -16.03 51.74 -17.68 49.3 C-20.39 45.48 -23.53 42.07 -26.62 38.56 C-29.62 33.56 -29.62 33.56 -29.62 31.56 C-30.95 30.9 -32.26 30.24 -33.62 29.56 C-34.33 28.99 -35.03 28.41 -35.75 27.81 C-39.81 24.64 -44.18 22.18 -48.62 19.56 C-49.62 18.9 -50.61 18.24 -51.62 17.56 C-49.85 10.47 -44.39 5.83 -38.62 1.69 C-25.97 -5.03 -13.17 -6.18 0 0 Z " fill="#CFAD81" transform="translate(698.625,311.4375)"/>
<path d="M0 0 C7.94 3.97 13.82 9.72 20 16 C22.66 18.34 25.33 20.67 28 23 C30.35 25.31 32.69 27.64 35 30 C35.4 30.38 35.4 30.38 37.44 32.31 C40.42 35.44 43.08 38.79 45.75 42.18 C48.16 45.21 50.64 48.17 53.12 51.12 C64 64.15 64 64.15 64 67 C59.55 66.11 55.35 64.96 51 63.69 C32.03 58.38 13.39 55.8 -6.25 55.81 C-6.89 55.81 -6.89 55.81 -10.12 55.81 C-19.22 55.87 -28.01 56.51 -37 58 C-39.42 58.31 -41.83 58.63 -44.25 58.94 C-50.65 59.86 -56.75 61.35 -63 63 C-64.36 63.28 -65.72 63.57 -67.12 63.86 C-72.78 65.18 -78.25 66.91 -83.75 68.75 C-84.81 69.1 -85.87 69.46 -86.96 69.82 C-93.63 72.09 -100.03 74.6 -106.35 77.71 C-108.76 78.88 -111.25 79.86 -113.75 80.81 C-129.74 87.48 -144.18 96.65 -158 107 C-159.04 107.77 -160.09 108.55 -161.16 109.34 C-168.87 115.15 -176.04 121.33 -183 128 C-184.16 129.11 -185.32 130.21 -186.51 131.35 C-220.5 164.5 -242.86 210.17 -243.48 257.94 C-243.49 259.92 -243.49 261.9 -243.5 263.94 C-243.5 264.95 -243.51 265.97 -243.51 267.01 C-243.54 282.3 -242.16 296.65 -238.31 311.49 C-237.17 316.28 -236.72 320.12 -237 325 C-241.83 322.58 -243.25 312.89 -245 308 C-245.58 306.54 -246.15 305.07 -246.75 303.56 C-256.53 267.88 -249.56 224.75 -236 191 C-235.01 189.35 -234.02 187.7 -233 186 C-230.75 181.65 -228.5 177.3 -226.29 172.92 C-223.32 167.16 -220.01 162.09 -216 157 C-215.27 156 -214.55 155.01 -213.8 153.98 C-209.28 147.81 -204.5 142.07 -199.29 136.47 C-197.38 134.41 -195.55 132.28 -193.75 130.12 C-191.03 127.04 -188.19 124.58 -185 122 C-184.26 121.26 -183.51 120.51 -182.75 119.75 C-173.72 110.72 -163.97 102.58 -153 96 C-152.34 96 -151.68 96 -151 96 C-151 95.34 -151 94.68 -151 94 C-136.6 83.16 -119.48 76.05 -103 69 C-101.98 68.55 -100.96 68.1 -99.91 67.64 C-57.34 49.64 -1.96 41.86 43 55 C44.32 55 45.64 55 47 55 C33.85 35.87 19.67 18.68 2.32 3.16 C1.55 2.45 0.79 1.73 0 1 C0 0.67 0 0.34 0 0 Z " fill="#3B5178" transform="translate(569,256)"/>
<path d="M0 0 C0.74 -0.01 0.74 -0.01 4.47 -0.04 C8.5 0.19 8.5 0.19 13.5 2.19 C12.54 7 11.35 9.49 8.88 13.62 C-2.57 33.19 -11.53 54.31 -17.5 76.19 C-28.83 71.66 -34.11 63.98 -39.5 53.19 C-42.14 41.04 -41.08 29.28 -34.75 18.5 C-25.48 6.2 -15.63 0.07 0 0 Z " fill="#CEAE82" transform="translate(321.5,344.8125)"/>
<path d="M0 0 C0 0.66 0 1.32 0 2 C1.32 2.66 2.64 3.32 4 4 C9.56 8.75 11.73 13.23 12.44 20.5 C11.95 25.49 10.85 27.92 8 32 C7.65 32.52 7.65 32.52 5.88 35.12 C0.27 40.73 -5.7 43.3 -13.56 43.5 C-22.79 43.09 -29.5 40.76 -36 34 C-39.58 28.12 -39.53 22.78 -39 16 C-36.27 7.35 -31.46 2.66 -23.75 -1.94 C-15.3 -4.33 -7.89 -3.64 0 0 Z " fill="#FAB194" transform="translate(662,547)"/>
<path d="M0 0 C5.19 3.66 9.21 7.05 11.62 13 C12.38 21.05 12.74 26.16 8 33 C7.42 33.89 6.85 34.77 6.25 35.69 C1.12 40.96 -5.37 42.87 -12.5 43.44 C-21.8 43.34 -27.74 39.3 -34.12 32.81 C-38.65 26.81 -38.32 22.46 -38 15 C-36.19 8.32 -32.23 4.42 -27 0 C-17.39 -3.84 -9.5 -4.24 0 0 Z " fill="#FAB093" transform="translate(403,563)"/>
<path d="M0 0 C4.93 0.19 4.93 0.19 6.93 -0.81 C6.93 -0.15 6.93 0.51 6.93 1.19 C8.04 1.42 9.14 1.65 10.27 1.89 C26.42 5.36 41.39 9.19 55.93 17.19 C55.93 17.85 55.93 18.51 55.93 19.19 C57.05 19.44 58.16 19.69 59.31 19.94 C62.93 21.19 62.93 21.19 64.93 25.19 C65.59 25.52 65.59 25.52 68.93 27.19 C72.18 30.13 73.95 32.23 75.93 36.19 C76.92 36.52 77.91 36.85 78.93 37.19 C80.47 39.63 80.47 39.63 82 42.63 C84.75 48.01 84.75 48.01 86.93 50.19 C86.6 51.18 86.27 52.17 85.93 53.19 C81.93 49.19 81.93 49.19 79.56 44.88 C76.2 38.87 73.15 34.3 66.93 31.19 C66.93 30.53 66.93 29.87 66.93 29.19 C65.94 28.86 64.95 28.53 63.93 28.19 C63.6 26.87 63.27 25.55 62.93 24.19 C61.94 24.19 60.95 24.19 59.93 24.19 C59.93 23.53 59.93 22.87 59.93 22.19 C59.53 22.07 59.53 22.07 57.5 21.44 C52 19.51 46.71 17.45 41.93 14.07 C38.08 11.66 34.37 11 29.93 10.19 C29.93 9.53 29.93 8.87 29.93 8.19 C24.57 7.45 19.2 6.71 13.84 5.99 C10.49 5.54 7.15 5.07 3.81 4.55 C-5.95 3.13 -15.66 2.98 -25.5 2.94 C-26.88 2.93 -28.26 2.92 -29.67 2.91 C-37.09 2.94 -43.8 3.54 -51.07 5.19 C-53.6 5.45 -56.15 5.67 -58.69 5.82 C-59.9 5.89 -61.11 5.97 -62.36 6.04 C-63.25 6.09 -64.14 6.14 -65.07 6.19 C-65.07 6.85 -65.07 7.51 -65.07 8.19 C-69.15 9.31 -72.96 10.18 -77.19 10.5 C-81.63 11.13 -84.97 12.17 -89.13 13.75 C-94.33 15.71 -98.44 16.75 -104.07 16.19 C-104.07 16.85 -104.07 17.51 -104.07 18.19 C-109.19 20.63 -114.25 22.61 -119.69 24.19 C-124.61 25.65 -128.73 27.39 -133.07 30.19 C-138.07 33.19 -138.07 33.19 -141.19 33.69 C-144.07 34.19 -144.07 34.19 -147.07 37.19 C-148.08 37.6 -149.09 38.02 -150.13 38.44 C-154.33 40.31 -157.85 42.74 -161.57 45.42 C-163.79 46.99 -166.08 48.44 -168.38 49.88 C-171.51 51.84 -174.21 53.87 -177.07 56.19 C-179.12 57.78 -181.18 59.37 -183.25 60.94 C-184.3 61.74 -185.34 62.54 -186.42 63.36 C-189.07 65.19 -189.07 65.19 -191.07 65.19 C-191.4 65.85 -191.4 65.85 -193.07 69.19 C-200.34 74.19 -200.34 74.19 -203.07 74.19 C-203.4 74.85 -203.4 74.85 -205.07 78.19 C-208.05 81.27 -211.06 84.27 -214.13 87.25 C-220.9 93.92 -227.32 100.6 -233.07 108.19 C-233.67 108.96 -233.67 108.96 -236.75 112.88 C-239 115.81 -241.21 118.77 -243.38 121.75 C-244.27 122.89 -245.15 124.02 -246.07 125.19 C-246.73 125.19 -247.39 125.19 -248.07 125.19 C-248.73 126.84 -249.39 128.49 -250.07 130.19 C-251.39 132.53 -252.72 134.86 -254.07 137.19 C-255.41 139.85 -256.75 142.52 -258.07 145.19 C-258.73 145.19 -259.39 145.19 -260.07 145.19 C-260.4 146.51 -260.73 147.83 -261.07 149.19 C-261.82 151.16 -262.59 153.11 -263.38 155.07 C-267.19 164.87 -269.94 174.9 -272.07 185.19 C-272.73 185.19 -273.39 185.19 -274.07 185.19 C-275.1 194.44 -275.18 203.58 -275.13 212.88 C-275.12 214.36 -275.12 215.83 -275.12 217.35 C-275.1 220.97 -275.09 224.58 -275.07 228.19 C-273.75 228.52 -272.43 228.85 -271.07 229.19 C-270.9 229.52 -270.9 229.52 -270.07 231.19 C-276.01 230.53 -281.95 229.87 -288.07 229.19 C-288.09 225.92 -288.11 222.65 -288.13 219.38 C-288.14 217.56 -288.15 215.74 -288.16 213.86 C-288.07 209.19 -288.07 209.19 -287.07 206.19 C-287.03 202.52 -287.02 198.86 -287.07 195.19 C-284.41 197.85 -283.79 200.46 -282.57 204 C-281.15 208.12 -279.68 212.15 -278.07 216.19 C-277.65 210.22 -278.94 205.01 -280.41 199.28 C-281.07 196.19 -281.07 196.19 -281.07 191.19 C-279.07 195.19 -279.07 195.19 -279.07 197.19 C-278.41 197.19 -277.75 197.19 -277.07 197.19 C-277.06 196.36 -277.06 196.36 -277 192.13 C-275.57 173.68 -267.31 155.5 -259.07 139.19 C-258.41 139.19 -257.75 139.19 -257.07 139.19 C-256.82 138.33 -256.57 137.46 -256.32 136.57 C-255 133 -253.21 130.31 -251.07 127.19 C-250.9 126.7 -250.9 126.7 -250.07 124.19 C-249.41 124.19 -248.75 124.19 -248.07 124.19 C-247.9 123.53 -247.9 123.53 -247.07 120.19 C-245.43 118.16 -243.76 116.17 -242.07 114.19 C-241.71 113.63 -241.71 113.63 -239.88 110.82 C-239.28 109.95 -238.68 109.08 -238.07 108.19 C-237.41 108.19 -236.75 108.19 -236.07 108.19 C-235.41 106.87 -234.75 105.55 -234.07 104.19 C-232.34 102.01 -230.56 99.87 -228.75 97.75 C-227.81 96.64 -226.86 95.53 -225.89 94.38 C-223.37 91.54 -220.76 88.87 -218.07 86.19 C-217.34 85.26 -216.62 84.34 -215.88 83.38 C-215.28 82.66 -214.68 81.94 -214.07 81.19 C-213.41 81.19 -212.75 81.19 -212.07 81.19 C-211.9 80.7 -211.9 80.7 -211.07 78.19 C-207.07 74.19 -207.07 74.19 -204.07 73.19 C-202.75 71.87 -201.43 70.55 -200.07 69.19 C-198.42 68.53 -196.77 67.87 -195.07 67.19 C-194.74 66.53 -194.74 66.53 -193.07 63.19 C-190.68 61.19 -190.68 61.19 -187.82 59.19 C-186.83 58.5 -185.85 57.8 -184.83 57.09 C-182.76 55.66 -180.67 54.27 -178.57 52.88 C-176.07 51.19 -176.07 51.19 -173.07 48.19 C-171.2 47.02 -169.3 45.9 -167.38 44.82 C-163.87 42.81 -160.42 40.79 -157 38.63 C-124.42 18.46 -87.68 7.76 -50.07 2.19 C-49.41 1.86 -48.75 1.53 -48.07 1.19 C-31.95 -0.58 -16.18 -0.92 0 0 Z " fill="#6B85B4" transform="translate(609.06640625,363.80859375)"/>
<path d="M0 0 C0.33 0.66 0.66 1.32 1 2 C1.66 2 2.32 2 3 2 C5.05 4.29 7.05 6.63 9 9 C8.67 9.66 8.34 10.32 8 11 C7.67 11 7.34 11 7 11 C8.88 21.62 8.88 21.62 10 25 C12.86 40.87 10.03 58.58 3 73 C2.49 74.11 1.98 75.23 1.45 76.38 C-6.22 92.11 -19.14 106.2 -35 114 C-38.09 115.02 -41.19 115.98 -44.33 116.88 C-47 118 -47 118 -50 122 C-48.97 127.17 -47.57 132.12 -46.12 137.19 C-39.33 161.68 -36.8 187.19 -36.88 212.56 C-36.87 213.9 -36.87 215.24 -36.86 216.62 C-36.86 217.26 -36.86 217.26 -36.87 220.5 C-36.87 221.66 -36.87 222.81 -36.87 224 C-37 227 -37 227 -38 231 C-38.43 234.54 -38.84 238.08 -39.25 241.62 C-40.54 252.08 -42.82 261.94 -46 272 C-46.25 272.8 -46.25 272.8 -47.5 276.88 C-50.42 284.91 -53.53 292.68 -58 300 C-58.49 300.83 -58.97 301.65 -59.48 302.5 C-63.46 309.25 -67.87 315.11 -73 321 C-73.63 321.76 -74.25 322.51 -74.9 323.29 C-81.14 330.6 -88.31 336.27 -96 342 C-97.05 342.78 -98.09 343.56 -99.17 344.37 C-110 352.35 -110 352.35 -114.8 353.91 C-118.9 355.31 -122.46 357.34 -126.25 359.44 C-132.49 362.8 -138.18 365.22 -145 367 C-145.66 367.66 -146.32 368.32 -147 369 C-149.99 369.69 -152.99 370.36 -156 371 C-157.65 371.66 -159.3 372.32 -161 373 C-169.37 375.28 -177.66 376.86 -186.25 378.06 C-187.42 378.23 -188.6 378.4 -189.81 378.57 C-193.2 379.06 -196.6 379.53 -200 380 C-201.73 380.24 -203.46 380.48 -205.24 380.73 C-215.73 382.14 -215.73 382.14 -218 381 C-213.94 378.97 -211.4 378.54 -206.94 378.06 C-159.4 372.48 -108.98 357.25 -76.5 319.94 C-75.92 319.29 -75.92 319.29 -73 316 C-72.34 316 -71.68 316 -71 316 C-70.34 314.68 -69.68 313.36 -69 312 C-67.41 309.47 -65.8 306.95 -64.19 304.44 C-60.2 298.11 -56.87 291.9 -54 285 C-53.34 285 -52.68 285 -52 285 C-51.88 284 -51.77 283 -51.65 281.98 C-50.99 277.92 -49.91 274.28 -48.62 270.38 C-46.37 263.29 -44.41 256.3 -43 249 C-42.72 247.63 -42.44 246.27 -42.15 244.86 C-35.1 204.58 -40.28 161.06 -53.77 122.69 C-55 119 -55 119 -56 114 C-53 117 -53 117 -52 120 C-51.67 119.34 -51.67 119.34 -50 116 C-47.06 114.73 -47.06 114.73 -43.44 113.62 C-37.18 111.53 -32.33 108.98 -27 105 C-25.47 103.87 -23.95 102.73 -22.38 101.56 C-6.93 88.99 3.53 71.76 7 52 C7.41 47.39 7.48 42.82 7.44 38.19 C7.43 37.57 7.43 37.57 7.42 34.47 C7.25 24.29 6.06 14.96 1.36 5.8 C0 3 0 3 0 0 Z " fill="#4E6698" transform="translate(754,308)"/>
<path d="M0 0 C6.11 1.53 8.13 5.08 12 10 C11.67 11.32 11.34 12.64 11 14 C9.68 14.33 8.36 14.66 7 15 C5.68 13.68 4.36 12.36 3 11 C-1 13 -1 13 -4.38 16.19 C-15.23 25.13 -25.23 28.15 -39 28 C-39.33 28.83 -39.33 28.83 -41 33 C-42.31 35.35 -43.64 37.68 -45 40 C-46.32 39.67 -47.64 39.34 -49 39 C-50 35 -50 35 -47.56 30.75 C-47.14 30.13 -47.14 30.13 -45 27 C-48.3 26.34 -51.6 25.68 -55 25 C-55 23.02 -55 21.04 -55 19 C-53.43 19.16 -51.87 19.33 -50.25 19.5 C-33.6 20.95 -20.41 18.32 -7.06 7.94 C-4.43 5.42 -2.15 2.93 0 0 Z " fill="#1B1813" transform="translate(445,505)"/>
<path d="M0 0 C4 1 4 1 7.12 4.19 C14.41 11.36 22.26 15.71 32.49 16.23 C40.72 16.16 48.83 16.07 57 15 C57 16.65 57 18.3 57 20 C51.38 23 51.38 23 48 23 C48.42 23.7 48.42 23.7 50.56 27.25 C53 32 53 32 52 36 C47 35 47 35 44.19 31.06 C42 27 42 27 42 25 C40.98 25.06 39.97 25.12 38.92 25.18 C24.8 25.64 15.54 22.35 5 13 C4.34 11.68 3.68 10.36 3 9 C2.22 9.78 1.43 10.57 0.62 11.38 C-0.92 12.92 -2.46 14.46 -4 16 C-5.32 15.67 -6.64 15.34 -8 15 C-6.7 8.52 -3.89 5.3 0 0 Z " fill="#1D1915" transform="translate(580,493)"/>
<path d="M0 0 C0.99 0.33 1.98 0.66 3 1 C5.21 10.49 5.61 19.85 5.95 29.56 C6.33 36.79 6.77 41.54 12 47 C16.1 49.73 20.2 50.13 25 51 C25 52.65 25 54.3 25 56 C23 57 23 57 17 57 C12.8 55.28 9.31 53.12 6 50 C5.67 48.68 5.34 47.36 5 46 C4.34 46 3.68 46 3 46 C2.34 47.32 1.68 48.64 1 50 C-2.29 53.75 -5.32 56.22 -10 58 C-13.88 58.19 -13.88 58.19 -17 58 C-17.33 56.35 -17.66 54.7 -18 53 C-17 52 -17 52 -12.75 51.19 C-8.21 50.05 -6.19 49.29 -3 46 C-0.57 41.14 -0.68 37.85 -0.59 32.42 C-0.55 30.54 -0.51 28.66 -0.47 26.72 C-0.44 24.75 -0.41 22.78 -0.38 20.75 C-0.34 18.74 -0.3 16.74 -0.26 14.73 C-0.16 9.82 -0.08 4.91 0 0 Z " fill="#232627" transform="translate(516,581)"/>
<path d="M0 0 C5.22 1.3 6.13 3.62 9 8 C10.42 7.5 11.85 7.01 13.31 6.5 C18 5 18 5 21 5 C20 9 20 9 17 14 C18 18.99 18.89 20.29 22 24 C22 24.66 22 25.32 22 26 C20.14 25.84 18.29 25.67 16.38 25.5 C13.06 25.47 13.06 25.47 10 26 C6.38 30 6.38 30 4 34 C3.34 34 2.68 34 2 34 C2 30.04 2 26.08 2 22 C0.76 21.9 -0.48 21.79 -1.75 21.69 C-6 21 -6 21 -10 18 C-8.54 17.44 -7.07 16.89 -5.56 16.31 C-1 13 -1 13 -0.18 9.77 C0.04 6.49 0.12 3.29 0 0 Z " fill="#F4E4B8" transform="translate(286,214) rotate(0) scale(1)"/>
<path d="M0 0 C5.22 1.3 6.13 3.62 9 8 C10.42 7.5 11.85 7.01 13.31 6.5 C18 5 18 5 21 5 C20 9 20 9 17 14 C18 18.99 18.89 20.29 22 24 C22 24.66 22 25.32 22 26 C20.14 25.84 18.29 25.67 16.38 25.5 C13.06 25.47 13.06 25.47 10 26 C6.38 30 6.38 30 4 34 C3.34 34 2.68 34 2 34 C2 30.04 2 26.08 2 22 C0.76 21.9 -0.48 21.79 -1.75 21.69 C-6 21 -6 21 -10 18 C-8.54 17.44 -7.07 16.89 -5.56 16.31 C-1 13 -1 13 -0.18 9.77 C0.04 6.49 0.12 3.29 0 0 Z " fill="#F4E4B8" transform="translate(395,168) rotate(18) scale(0.55)"/>
<path d="M0 0 C5.22 1.3 6.13 3.62 9 8 C10.42 7.5 11.85 7.01 13.31 6.5 C18 5 18 5 21 5 C20 9 20 9 17 14 C18 18.99 18.89 20.29 22 24 C22 24.66 22 25.32 22 26 C20.14 25.84 18.29 25.67 16.38 25.5 C13.06 25.47 13.06 25.47 10 26 C6.38 30 6.38 30 4 34 C3.34 34 2.68 34 2 34 C2 30.04 2 26.08 2 22 C0.76 21.9 -0.48 21.79 -1.75 21.69 C-6 21 -6 21 -10 18 C-8.54 17.44 -7.07 16.89 -5.56 16.31 C-1 13 -1 13 -0.18 9.77 C0.04 6.49 0.12 3.29 0 0 Z " fill="#F4E4B8" transform="translate(720,232) rotate(-22) scale(0.75)"/>
<path d="M0 0 C5.22 1.3 6.13 3.62 9 8 C10.42 7.5 11.85 7.01 13.31 6.5 C18 5 18 5 21 5 C20 9 20 9 17 14 C18 18.99 18.89 20.29 22 24 C22 24.66 22 25.32 22 26 C20.14 25.84 18.29 25.67 16.38 25.5 C13.06 25.47 13.06 25.47 10 26 C6.38 30 6.38 30 4 34 C3.34 34 2.68 34 2 34 C2 30.04 2 26.08 2 22 C0.76 21.9 -0.48 21.79 -1.75 21.69 C-6 21 -6 21 -10 18 C-8.54 17.44 -7.07 16.89 -5.56 16.31 C-1 13 -1 13 -0.18 9.77 C0.04 6.49 0.12 3.29 0 0 Z " fill="#F4E4B8" transform="translate(845,470) rotate(30) scale(0.6)"/>
<path d="M0 0 C5.22 1.3 6.13 3.62 9 8 C10.42 7.5 11.85 7.01 13.31 6.5 C18 5 18 5 21 5 C20 9 20 9 17 14 C18 18.99 18.89 20.29 22 24 C22 24.66 22 25.32 22 26 C20.14 25.84 18.29 25.67 16.38 25.5 C13.06 25.47 13.06 25.47 10 26 C6.38 30 6.38 30 4 34 C3.34 34 2.68 34 2 34 C2 30.04 2 26.08 2 22 C0.76 21.9 -0.48 21.79 -1.75 21.69 C-6 21 -6 21 -10 18 C-8.54 17.44 -7.07 16.89 -5.56 16.31 C-1 13 -1 13 -0.18 9.77 C0.04 6.49 0.12 3.29 0 0 Z " fill="#F4E4B8" transform="translate(880,660) rotate(-12) scale(0.42)"/>
<path d="M0 0 C5.22 1.3 6.13 3.62 9 8 C10.42 7.5 11.85 7.01 13.31 6.5 C18 5 18 5 21 5 C20 9 20 9 17 14 C18 18.99 18.89 20.29 22 24 C22 24.66 22 25.32 22 26 C20.14 25.84 18.29 25.67 16.38 25.5 C13.06 25.47 13.06 25.47 10 26 C6.38 30 6.38 30 4 34 C3.34 34 2.68 34 2 34 C2 30.04 2 26.08 2 22 C0.76 21.9 -0.48 21.79 -1.75 21.69 C-6 21 -6 21 -10 18 C-8.54 17.44 -7.07 16.89 -5.56 16.31 C-1 13 -1 13 -0.18 9.77 C0.04 6.49 0.12 3.29 0 0 Z " fill="#F4E4B8" transform="translate(170,705) rotate(24) scale(0.5)"/>
<path d="M0 0 C4.38 0.93 7.98 1.99 12 4 C10.77 8.93 8.5 11.71 5.5 15.81 C-0.12 23.64 -5.19 31.66 -10 40 C-10.33 39.34 -10.66 38.68 -11 38 C-13.98 37.26 -16.98 36.59 -20 36 C-19.2 34.7 -18.39 33.4 -17.56 32.06 C-12.2 23.14 -7.41 13.87 -2.79 4.54 C-1 1 -1 1 0 0 Z " fill="#F3D8B2" transform="translate(346,309)"/>
<path d="M0 0 C0.66 0 1.32 0 2 0 C1.35 4.46 0.3 8.68 -1 13 C-1.66 13 -2.32 13 -3 13 C-3.33 14.65 -3.66 16.3 -4 18 C-9.16 29.31 -16.04 40.35 -25 49 C-25.88 49.91 -26.75 50.82 -27.66 51.76 C-47.69 72.38 -72.8 86.13 -100 95 C-101.56 95.53 -103.12 96.05 -104.73 96.6 C-114.76 99.9 -124.59 102.32 -135 104 C-136.56 104.28 -138.11 104.56 -139.71 104.84 C-146.92 106.11 -153.67 107.17 -161 107 C-161 106.67 -161 106.34 -161 106 C-158.48 105.35 -155.96 104.7 -153.44 104.06 C-152.74 103.88 -152.74 103.88 -149.18 102.97 C-143.81 101.72 -138.56 101.05 -133.06 100.56 C-127.61 99.96 -122.6 98.89 -117.41 97.11 C-111.07 95.04 -104.6 93.39 -98.16 91.63 C-93.44 90.14 -89.37 88.31 -85 86 C-83.54 85.44 -82.07 84.89 -80.56 84.31 C-73.93 81.75 -67.79 78.23 -61.56 74.83 C-58 73 -58 73 -56 73 C-56 72.34 -56 71.68 -56 71 C-53.92 69.6 -51.83 68.21 -49.72 66.86 C-45.75 64.15 -42.14 61.06 -38.48 57.95 C-36 56 -36 56 -32 54 C-31.34 52.68 -30.68 51.36 -30 50 C-28.05 47.37 -26.07 45.06 -23.69 42.81 C-12.42 31.02 -4.81 15.43 0 0 Z " fill="#E3D9C2" transform="translate(703,580)"/>
<path d="M0 0 C1.03 -0.01 2.05 -0.02 3.11 -0.04 C7.87 -0.05 10.93 0.03 15.25 2.19 C14.25 7.19 14.25 7.19 13.25 8.19 C10.21 8.28 7.16 8.37 4.12 8.43 C-8.65 8.67 -20.37 9.82 -32.75 13.19 C-37.75 14.19 -37.75 14.19 -40.75 13.19 C-40.75 11.87 -40.75 10.55 -40.75 9.19 C-28.65 1.12 -14.14 0.01 0 0 Z " fill="#12192E" transform="translate(524.75,534.8125)"/>
</svg>
